<?xml version="1.0" encoding="utf-8"?>
<!-- Generator: Adobe Illustrator 24.0.1, SVG Export Plug-In . SVG Version: 6.00 Build 0)  -->
<svg version="1.1" id="Layer_1" xmlns="http://www.w3.org/2000/svg" xmlns:xlink="http://www.w3.org/1999/xlink" x="0px" y="0px"
	 viewBox="0 0 85.4 90" style="enable-background:new 0 0 85.4 90;" xml:space="preserve">
<style type="text/css">
	.st0{fill:none;stroke:#000000;stroke-width:5;stroke-miterlimit:10;}
	.st1{stroke:#000000;stroke-width:5;stroke-miterlimit:10;}
</style>
<title>G27_navegacao-B</title>
<path id="a" class="st0" d="M42.5,60.5c14.8,0,26.8-12,26.9-26.8S57.3,6.8,42.5,6.8c-14.8,0-26.8,12-26.9,26.8c0,0,0,0,0,0
	C15.7,48.5,27.7,60.5,42.5,60.5L42.5,60.5z M49.4,25.7l-9.4,5.7l-4.1,10.2l9.4-5.7L49.4,25.7z M42.1,8.1v2.4h0.8V8.1H42.1z
	 M55.1,11.4l-1.3,2.3l0.5,0.3l1.3-2.3L55.1,11.4z M64.5,20.7l-2.3,1.3l0.3,0.5l2.3-1.3L64.5,20.7z M67.7,33h-2.4v0.8h2.4V33z
	 M64.8,46.4L62.5,45l-0.3,0.5l2.3,1.4L64.8,46.4z M55.5,55.8l-1.3-2.3l-0.5,0.3l1.3,2.3L55.5,55.8z M42.9,59.4V57h-0.8v2.4H42.9z
	 M29.9,56.1l1.3-2.3l-0.5-0.3l-1.3,2.3L29.9,56.1z M20.4,46.8l2.3-1.4L22.5,45l-2.3,1.3L20.4,46.8z M17.3,33h2.4v0.8h-2.4V33z
	 M20.2,21.2l2.3,1.3l0.3-0.5l-2.3-1.3L20.2,21.2z M29.4,11.7l1.3,2.3l0.5-0.3l-1.3-2.3L29.4,11.7z"/>
<rect x="42.3" y="30.8" transform="matrix(0.7704 -0.6376 0.6376 0.7704 -10.1159 34.3841)" class="st0" width="0.8" height="0.8"/>
<path d="M11.2,80.3H8.7l-4-7H4.6c0.1,1.2,0.1,2.1,0.1,2.6v4.4H3V71h2.5l4,6.9l0,0c-0.1-1.2-0.1-2.1-0.1-2.6V71h1.8L11.2,80.3z"/>
<path d="M19.2,80.3l-0.7-2.2h-3.4l-0.7,2.2h-2.1l3.3-9.3H18l3.3,9.3H19.2z M18.1,76.4c-0.6-2-1-3.1-1-3.4s-0.1-0.5-0.2-0.6
	c-0.1,0.5-0.5,1.9-1.2,4H18.1z"/>
<path d="M27.7,71h2l-3.1,9.3h-2.1L21.3,71h2l1.7,5.6c0.1,0.3,0.2,0.7,0.3,1.1c0.1,0.4,0.2,0.7,0.2,0.9c0.1-0.7,0.3-1.4,0.5-2
	L27.7,71z"/>
<path d="M36.2,80.3h-5.3V71h5.3v1.6h-3.4v2.1H36v1.6h-3.1v2.4h3.4V80.3z"/>
<path d="M41.7,75.1h3.7v4.8c-0.5,0.2-1.1,0.3-1.7,0.4c-0.5,0.1-1.1,0.1-1.6,0.1c-1.2,0.1-2.4-0.4-3.2-1.2c-0.8-1-1.2-2.3-1.1-3.5
	c-0.1-1.3,0.4-2.6,1.3-3.5c1-0.9,2.2-1.3,3.6-1.2c1,0,1.9,0.2,2.8,0.6L44.7,73c-0.7-0.3-1.4-0.5-2.1-0.5c-0.8,0-1.5,0.3-2,0.9
	c-0.5,0.6-0.8,1.5-0.8,2.3c-0.1,0.8,0.2,1.6,0.6,2.3c0.4,0.5,1.1,0.8,1.8,0.8c0.4,0,0.8,0,1.2-0.1v-1.9h-1.8V75.1z"/>
<path d="M53.2,80.3l-0.7-2.2h-3.4l-0.7,2.2h-2.1l3.3-9.3H52l3.3,9.3H53.2z M52,76.4c-0.6-2-0.9-3.1-1-3.4c-0.1-0.2-0.1-0.4-0.2-0.6
	c-0.1,0.5-0.5,1.9-1.2,4H52z"/>
<path d="M60.4,72.5c-0.7,0-1.3,0.3-1.7,0.8c-0.4,0.7-0.7,1.5-0.6,2.3c0,2.1,0.8,3.1,2.3,3.1c0.8,0,1.6-0.2,2.4-0.5v1.6
	c-0.8,0.3-1.7,0.5-2.5,0.5c-1.2,0.1-2.3-0.4-3.1-1.2c-0.8-1-1.2-2.3-1.1-3.5c0-0.9,0.2-1.7,0.5-2.5c0.3-0.7,0.8-1.3,1.5-1.7
	c0.7-0.4,1.5-0.6,2.3-0.6c0.9,0,1.9,0.2,2.7,0.6l-0.6,1.6c-0.3-0.2-0.7-0.3-1-0.4C61.1,72.6,60.7,72.5,60.4,72.5z M61.4,81.9
	c0,0.4-0.1,0.9-0.5,1.2c-0.4,0.3-1,0.4-1.5,0.4c-0.3,0-0.6,0-0.9-0.1v-1.1l0.5,0.1c0.1,0,0.3,0,0.4,0c0.3,0,0.5-0.1,0.5-0.4
	s-0.4-0.6-1.1-0.7l0.5-0.9h1.2l-0.2,0.4c0.3,0.1,0.5,0.2,0.7,0.5C61.3,81.3,61.4,81.6,61.4,81.9L61.4,81.9z"/>
<path d="M70.4,80.3l-0.7-2.2h-3.4l-0.7,2.2h-2.1l3.3-9.3h2.4l3.3,9.3H70.4z M67,69.6c-0.1,0-0.3,0.1-0.4,0.2
	c-0.1,0.1-0.2,0.3-0.3,0.5h-0.9c0-0.5,0.2-1,0.5-1.4c0.3-0.3,0.7-0.5,1.2-0.5c0.2,0,0.3,0,0.5,0.1c0.2,0.1,0.3,0.1,0.5,0.2l0.5,0.2
	c0.1,0.1,0.3,0.1,0.5,0.1c0.1,0,0.3-0.1,0.4-0.2c0.1-0.1,0.2-0.3,0.3-0.5h0.9c0,0.5-0.2,1-0.5,1.4c-0.3,0.3-0.7,0.5-1.2,0.5
	c-0.2,0-0.3,0-0.5-0.1L67.9,70l-0.5-0.2C67.3,69.7,67.1,69.6,67,69.6z M69.2,76.4c-0.6-2-0.9-3.1-1-3.4c-0.1-0.2-0.1-0.4-0.2-0.6
	c-0.1,0.5-0.5,1.9-1.2,4H69.2z"/>
<path d="M82,75.6c0.1,1.3-0.3,2.5-1.1,3.5c-1.9,1.6-4.6,1.6-6.5,0c-1.5-2.1-1.5-5,0-7.1c1.9-1.6,4.7-1.6,6.5,0
	C81.7,73.1,82.1,74.4,82,75.6z M75.3,75.6c-0.1,0.8,0.1,1.6,0.6,2.3c0.4,0.5,1.1,0.8,1.8,0.8c1.6,0,2.3-1,2.3-3.1
	c0-2.1-0.8-3.1-2.3-3.1c-0.7,0-1.3,0.2-1.8,0.8C75.4,74,75.2,74.8,75.3,75.6z"/>
<rect x="40.8" y="33.8" class="st1" width="1.3" height="1.3"/>
</svg>
