<?xml version="1.0" encoding="utf-8"?>
<!-- Generator: Adobe Illustrator 24.0.1, SVG Export Plug-In . SVG Version: 6.00 Build 0)  -->
<svg version="1.1" id="Layer_1" xmlns="http://www.w3.org/2000/svg" xmlns:xlink="http://www.w3.org/1999/xlink" x="0px" y="0px"
	 viewBox="0 0 85.4 90" style="enable-background:new 0 0 85.4 90;" xml:space="preserve">
<style type="text/css">
	.st0{fill:none;stroke:#FFFFFF;stroke-width:5;stroke-miterlimit:10;}
	.st1{fill:none;stroke:#FFFFFF;stroke-width:5.0001;stroke-miterlimit:10.0002;}
	.st2{stroke:#FFFFFF;stroke-width:5;stroke-miterlimit:10;}
	.st3{fill:#FFFFFF;}
</style>
<title>G27_navegacao-B</title>
<path id="a" class="st0" d="M42.5,60.5c14.8,0,26.8-12,26.9-26.8S57.3,6.8,42.5,6.8s-26.8,12-26.9,26.8l0,0
	C15.7,48.5,27.7,60.5,42.5,60.5L42.5,60.5z M49.4,25.7L40,31.4l-4.1,10.2l9.4-5.7L49.4,25.7z M42.1,8.1v2.4h0.8V8.1H42.1z
	 M55.1,11.4l-1.3,2.3l0.5,0.3l1.3-2.3L55.1,11.4z M64.5,20.7L62.2,22l0.3,0.5l2.3-1.3L64.5,20.7z M67.7,33h-2.4v0.8h2.4V33z
	 M64.8,46.4L62.5,45l-0.3,0.5l2.3,1.4L64.8,46.4z M55.5,55.8l-1.3-2.3l-0.5,0.3l1.3,2.3L55.5,55.8z M42.9,59.4V57h-0.8v2.4H42.9z
	 M29.9,56.1l1.3-2.3l-0.5-0.3l-1.3,2.3L29.9,56.1z M20.4,46.8l2.3-1.4L22.5,45l-2.3,1.3L20.4,46.8z M17.3,33h2.4v0.8h-2.4V33z
	 M20.2,21.2l2.3,1.3l0.3-0.5l-2.3-1.3L20.2,21.2z M29.4,11.7l1.3,2.3l0.5-0.3l-1.3-2.3L29.4,11.7z"/>
<rect x="42.3" y="30.8" transform="matrix(0.7704 -0.6376 0.6376 0.7704 -10.0909 34.3708)" class="st1" width="0.8" height="0.8"/>
<rect x="40.8" y="33.8" class="st2" width="1.3" height="1.3"/>
<g>
	<path class="st3" d="M10.7,80H8.4l-3.7-6.5H4.6c0.1,1.1,0.1,2,0.1,2.4v4H3.1v-8.6h2.3l3.7,6.4h0c-0.1-1.1-0.1-1.9-0.1-2.4v-4.1h1.6
		V80z"/>
	<path class="st3" d="M18.1,80l-0.6-2h-3.1l-0.6,2h-2l3-8.6H17l3,8.6H18.1z M17.1,76.4c-0.6-1.8-0.9-2.9-1-3.1s-0.1-0.4-0.2-0.6
		c-0.1,0.5-0.5,1.7-1.1,3.7H17.1z"/>
	<path class="st3" d="M26,71.4h1.8L25,80h-2l-2.9-8.6h1.8l1.6,5.1c0.1,0.3,0.2,0.7,0.3,1.1s0.2,0.7,0.2,0.8c0-0.4,0.2-1,0.4-1.9
		L26,71.4z"/>
	<path class="st3" d="M33.9,80H29v-8.6h4.9v1.5h-3.1v1.9h2.9v1.5h-2.9v2.2h3.1V80z"/>
	<path class="st3" d="M38.9,75.1h3.4v4.4c-0.6,0.2-1.1,0.3-1.6,0.4s-1,0.1-1.5,0.1c-1.3,0-2.3-0.4-3-1.1s-1-1.9-1-3.3
		c0-1.4,0.4-2.5,1.2-3.2s1.9-1.2,3.3-1.2c0.9,0,1.7,0.2,2.5,0.5l-0.6,1.5c-0.6-0.3-1.3-0.5-2-0.5c-0.8,0-1.4,0.3-1.9,0.8
		s-0.7,1.2-0.7,2.1c0,0.9,0.2,1.6,0.6,2.1s0.9,0.7,1.7,0.7c0.4,0,0.8,0,1.2-0.1v-1.8h-1.6V75.1z"/>
	<path class="st3" d="M49.6,80l-0.6-2h-3.1l-0.6,2h-2l3-8.6h2.2l3,8.6H49.6z M48.6,76.4c-0.6-1.8-0.9-2.9-1-3.1s-0.1-0.4-0.2-0.6
		c-0.1,0.5-0.5,1.7-1.1,3.7H48.6z"/>
	<path class="st3" d="M56.3,72.8c-0.7,0-1.2,0.3-1.6,0.8s-0.6,1.2-0.6,2.1c0,1.9,0.7,2.9,2.2,2.9c0.6,0,1.3-0.2,2.2-0.5v1.5
		c-0.7,0.3-1.5,0.4-2.4,0.4c-1.2,0-2.2-0.4-2.9-1.1s-1-1.8-1-3.3c0-0.9,0.2-1.7,0.5-2.3s0.8-1.2,1.4-1.5s1.3-0.5,2.1-0.5
		c0.8,0,1.7,0.2,2.5,0.6l-0.6,1.5c-0.3-0.2-0.6-0.3-1-0.4S56.6,72.8,56.3,72.8z"/>
	<path class="st3" d="M60.3,80v-8.6h1.8V80H60.3z"/>
	<path class="st3" d="M72,75.7c0,1.4-0.4,2.5-1.1,3.3s-1.7,1.1-3,1.1s-2.3-0.4-3-1.1s-1.1-1.9-1.1-3.3s0.4-2.5,1.1-3.3
		s1.7-1.1,3-1.1s2.3,0.4,3,1.1S72,74.2,72,75.7z M65.8,75.7c0,1,0.2,1.7,0.5,2.2s0.9,0.7,1.6,0.7c1.4,0,2.2-1,2.2-2.9
		c0-1.9-0.7-2.9-2.2-2.9c-0.7,0-1.3,0.2-1.6,0.7S65.8,74.7,65.8,75.7z M67,70.7v-0.2c0.7-0.8,1.1-1.4,1.4-1.8h2v0.1
		c-0.2,0.2-0.5,0.5-1,0.9s-0.9,0.7-1.2,0.9H67z"/>
	<path class="st3" d="M81.4,80h-2.3l-3.7-6.5h-0.1c0.1,1.1,0.1,2,0.1,2.4v4h-1.6v-8.6h2.3l3.7,6.4h0c-0.1-1.1-0.1-1.9-0.1-2.4v-4.1
		h1.6V80z"/>
</g>
</svg>
