<svg xmlns="http://www.w3.org/2000/svg" width="30.99" height="37.94" viewBox="0 0 30.99 37.94"><title>icon_lists_condutor</title><path d="M7.65,25.25A65.35,65.35,0,0,0,0,30a19.14,19.14,0,0,0,31,0,65.35,65.35,0,0,0-7.65-4.76,10.66,10.66,0,0,1-4.8,3.4,8.9,8.9,0,0,1-3,.51,9.16,9.16,0,0,1-3.08-.55,11.15,11.15,0,0,1-4.76-3.4Z" style="fill:#333"/><path d="M25.21,12.73a.54.54,0,0,0-.12-.16c.43-2.07,1.25-7.92-3.24-10.66A2.49,2.49,0,0,0,22.75,0s-5.31.62-7.85.08a5.32,5.32,0,0,0-5.78,3.4s0,0-.08,0c-.47,0-4.53.47-3.43,7.81,0,.39.08.82.16,1.25a.54.54,0,0,1-.12.16c-.94,1.25-.59,3-.23,4.25A6.91,6.91,0,0,0,7,20.1a10,10,0,0,0,6,6.75,7.14,7.14,0,0,0,4.88,0,10,10,0,0,0,6-6.75A6.91,6.91,0,0,0,25.45,17C25.8,15.73,26.15,14,25.21,12.73Zm-1.52,3.75c-.51,1.91-1,2.42-1.41,2.46a8.19,8.19,0,0,1-5,6.17,5.54,5.54,0,0,1-3.67,0,8.11,8.11,0,0,1-5-6.17c-.35,0-.86-.55-1.41-2.46-.7-2.42,0-2.93.59-2.93h.12S8.47,6,14.64,8.63a11.37,11.37,0,0,0,7.1.94A3.55,3.55,0,0,1,23,13.51v0h.12C23.73,13.55,24.39,14,23.69,16.47Z" style="fill:#333"/></svg>