<svg xmlns="http://www.w3.org/2000/svg" width="337.39" height="195.39" viewBox="0 0 337.39 195.39"><title>logo-white-assinatura</title><g id="87d88f67-015f-43dd-904d-d8cbd60ab187" data-name="Layer 2"><g id="5912dbf6-d3a1-44a4-892e-9ce5d41821b3" data-name="Layer 1"><text transform="translate(0 159.38)" font-size="28.65" fill="#fff" font-family="OpenSans-Bold, OpenSans Bold" font-weight="700"><tspan letter-spacing="-0.02em">A<tspan x="16.96" y="0" letter-spacing="-0.02em">t</tspan><tspan x="25.98" y="0" letter-spacing="-0.01em">estado</tspan></tspan><tspan x="0" y="28.85" letter-spacing="-0.01em">de </tspan><tspan x="35.72" y="28.85">I</tspan><tspan x="42.57" y="28.85" letter-spacing="-0.01em">n</tspan><tspan x="58.07" y="28.85" letter-spacing="-0.02em">t</tspan><tspan x="67.09" y="28.85" letter-spacing="-0.01em">eligência</tspan></text><path d="M317.48,49.25h17.78v64.87H299.7V49.25Zm0-9a19.91,19.91,0,1,0-19.91-19.91A19.91,19.91,0,0,0,317.48,40.22ZM71.84,6.67V49.25H44.69V71.46H71.84v42.66H107.4V6.67H71.84ZM0,6.67V114.12H35.57V6.67H0ZM123.7,49.25v64.87h35.56V49.25H123.7ZM141.48.4a19.91,19.91,0,1,0,19.91,19.91A19.91,19.91,0,0,0,141.48.4ZM276.37,89.76l11.34,11.34-15.65,15.65-11.55-11.55a57.33,57.33,0,1,1,15.86-15.44ZM234.7,79.39,222.32,67,238,51.36l13,13A23,23,0,1,0,234.7,79.39Z" fill="#fff"/></g></g></svg>