<svg xmlns="http://www.w3.org/2000/svg" width="120.09" height="126.11" viewBox="0 0 120.09 126.11"><title>icon_popup_02_abastecer_ok</title><path d="M93.33,78.3a23.09,23.09,0,1,0,23.09,23.09A23.09,23.09,0,0,0,93.33,78.3Z" style="fill:#fff"/><path d="M93.33,78.3a23.09,23.09,0,1,0,23.09,23.09A23.09,23.09,0,0,0,93.33,78.3Zm14.21,17.56-15,15a2.81,2.81,0,0,1-4,0l-9.4-9.4a2.81,2.81,0,0,1,4-4l7.41,7.41,13.05-13.05a2.81,2.81,0,0,1,4,4Z" style="fill:#2fcd13"/><circle cx="60.48" cy="59.99" r="59.77" style="fill:#eaeaea"/><path d="M56.48,56.62a.66.66,0,0,0-.56-.3.6.6,0,0,0-.56.35l-3.23,5.58c-1.64,2.77-3.84,5.48-3.84,8.81a7.61,7.61,0,1,0,15.21,0c0-3.33-2.2-6-3.79-8.81ZM55.86,74a.67.67,0,0,1-.72.51,5,5,0,0,1-4-3.64.63.63,0,0,1,1.23-.31,3.69,3.69,0,0,0,3,2.66A.69.69,0,0,1,55.86,74Z" style="fill:#333"/><path d="M95.35,41.7,85.5,31a3.55,3.55,0,0,0-2.61-1.15h0A3.55,3.55,0,0,0,80.27,31l-2.42,2.62v-2.2a6,6,0,0,0-6-6H40.41a6,6,0,0,0-6,6V83.15H33a3.55,3.55,0,0,0-3.55,3.55v4.07A3.55,3.55,0,0,0,33,94.31H79.08a3.55,3.55,0,0,0,3-1.66,9.17,9.17,0,0,0,5.45,1.64,8.59,8.59,0,0,0,6.38-2.36,8.73,8.73,0,0,0,2.28-6.5l.08-41.34A3.55,3.55,0,0,0,95.35,41.7ZM77.86,40.4l3.86,3.72.16,6.23a8.15,8.15,0,0,0-.85,0H77.86Zm14.8,45.06c.05,3.68-1.81,5.29-5.12,5.29s-5.2-1.89-5.29-5.06V59.15a1.54,1.54,0,0,0-1.16-1.22H74.31V86.7h4.77v4.07H33V86.7h5V31.37a2.44,2.44,0,0,1,2.44-2.44H71.87a2.44,2.44,0,0,1,2.44,2.44V53.86H81a5.5,5.5,0,0,1,5.28,5.08V85.46c0,1,.17,1.22,1.22,1.22s1.19-.22,1.22-1.09v-.15l-.07-33.63H85.47l-.24-9.24L79.49,37l3.4-3.69,9.85,10.74Zm-14-2.31h-.84V61.48h.84Z" style="fill:#333"/><path d="M42,49.27H70.24V33H42Zm3.55-12.73H66.69v9.18H45.58Z" style="fill:#333"/><path d="M95.56,78.81a23.65,23.65,0,1,0,23.65,23.65A23.65,23.65,0,0,0,95.56,78.81Z" style="fill:#fff"/><path d="M95.56,78.81a23.65,23.65,0,1,0,23.65,23.65A23.65,23.65,0,0,0,95.56,78.81Zm14.55,18-15.4,15.4a2.88,2.88,0,0,1-4.07,0L81,102.57a2.88,2.88,0,1,1,4.07-4.07l7.59,7.59L106,92.72a2.88,2.88,0,0,1,4.07,4.07Z" style="fill:#2fcd13"/></svg>