<svg xmlns="http://www.w3.org/2000/svg" width="32.3" height="23.53" viewBox="0 0 32.3 23.53"><title>icon_lists_viatura</title><path d="M31.82,6.87H28.68l-2-4.61C25.42.54,24.54,0,23,0H9.26C7.79,0,6.87.54,5.66,2.26L3.6,6.87H.46C0,6.87-.88,9.42,2.39,9.5L1.3,12.18c0,3.35,0,6.74,0,10.09A1.23,1.23,0,0,0,2.6,23.53H6.83a1.23,1.23,0,0,0,1.26-1.26V19.47H24.2v2.81a1.26,1.26,0,0,0,1.26,1.26h4.27A1.23,1.23,0,0,0,31,22.27c0-3.35,0-6.74,0-10.09L29.9,9.5C33.2,9.42,32.28,6.87,31.82,6.87ZM5.91,16.5A2.05,2.05,0,1,1,8,14.44,2.05,2.05,0,0,1,5.91,16.5ZM5.32,8.33C6,6.91,6.62,5.4,7.41,3.77A2.54,2.54,0,0,1,9.26,2.22H23c.92.08,1.42.8,1.88,1.55.8,1.63,1.42,3.14,2.09,4.56ZM26.38,16.5a2.05,2.05,0,1,1,2.05-2.05A2.05,2.05,0,0,1,26.38,16.5Z" style="fill:#333"/></svg>