<svg xmlns="http://www.w3.org/2000/svg" width="32.3" height="28.37" viewBox="0 0 32.3 28.37"><title>icon_lists_viatura_no</title><g id="520fb8e1-8c9e-47a8-b76a-ee304743fa07" data-name="Layer 2"><g id="12701e15-81f7-4470-8777-d9a4593b874c" data-name="Layer 1"><path d="M31.82,8.65H28.68L26.68,4C25.42,2.32,24.54,1.78,23,1.78H9.26c-1.47,0-2.39.54-3.6,2.26L3.6,8.65H.46C0,8.65-.88,11.2,2.39,11.28L1.3,14V24.05a1.23,1.23,0,0,0,1.2,1.26H6.83a1.23,1.23,0,0,0,1.26-1.2s0,0,0-.06v-2.8H24.2v2.81a1.26,1.26,0,0,0,1.26,1.26h4.27A1.23,1.23,0,0,0,31,24.13s0-.05,0-.08V14l-1.1-2.68C33.2,11.2,32.28,8.65,31.82,8.65ZM5.91,18.28a2.05,2.05,0,1,1,.05,0Zm-.59-8.17C6,8.69,6.62,7.18,7.41,5.55A2.54,2.54,0,0,1,9.26,4H23c.92.08,1.42.8,1.88,1.55.8,1.63,1.42,3.14,2.09,4.56Zm21.06,8.17a2.05,2.05,0,1,1,2-2.05h0A2.05,2.05,0,0,1,26.38,18.28Z" fill="#333"/><line x1="3.02" y1="27.31" x2="29.27" y2="1.06" fill="none" stroke="#db1c25" stroke-miterlimit="10" stroke-width="3"/></g></g></svg>