<svg width="248" height="322" xmlns="http://www.w3.org/2000/svg" style="vector-effect: non-scaling-stroke;" preserveAspectRatio="xMidYMid meet">

 <metadata style="vector-effect: non-scaling-stroke;">Created by potrace 1.15, written by Peter Selinger 2001-2017</metadata>
 <g class="currentLayer">
  <title>Layer 1</title>
  <g class="selected" id="svg_1" fill="#706155" transform="translate(0, 322) scale(0.1, -0.1)">
   <path fill="#706155" id="svg_2" d="m40,3071.618896l0,-114.000244l76.503624,-0.274658l76.503609,-0.411865l36.397583,-49.720459c20.190369,-27.33252 36.947021,-50.132568 37.633728,-50.681885c0.549438,-0.549316 0.961456,73.207031 0.961456,163.995117l0,165.093994l-114,0l-114,0l0,-114zm210.144531,-33.238525l0,-127.872314l-10.575836,14.421875c-5.906082,7.966064 -16.619308,22.662354 -23.761475,32.551758l-13.048172,17.855225l-72.383133,0.137451l-72.520504,0l0,95.457764l0,95.457764l96.144588,0l96.144531,0l0,-128.009521z"/>
   <path fill="#706155" id="svg_3" d="m149.467453,3123.811523c-12.910843,-3.296143 -25.272285,-13.322754 -31.040985,-25.134766c-2.609581,-5.494141 -3.983086,-6.592773 -8.790314,-7.828857c-3.159027,-0.824219 -6.867508,-1.785645 -8.103638,-2.197754c-1.785545,-0.549316 -2.472244,-2.19751 -2.472244,-5.493896c0,-4.669922 0,-4.669922 6.592758,-4.669922l6.455383,0l-0.412025,-6.730225c-0.549408,-6.72998 -0.549408,-6.72998 -6.592789,-8.240723c-5.631325,-1.510986 -6.043327,-1.785645 -6.043327,-6.318359l0,-4.807129l7.279472,0l7.142212,0l2.33493,-6.592529c8.378281,-23.624268 34.612022,-35.848389 60.296379,-28.294189c8.515686,2.609619 17.718079,7.416748 17.718079,9.477295c0,0.823975 -1.922943,4.257813 -4.120514,7.828857l-4.120438,6.455566l-6.730164,-4.257813c-5.768692,-3.433838 -8.240982,-4.258057 -15.520508,-4.258057c-13.048126,0 -22.662598,5.356689 -28.019226,15.795166l-2.060257,3.845703l23.486755,0l23.349396,0l0,6.867676l0,6.867432l-24.7229,0l-24.72287,0l0,6.180664l0,6.180664l24.72287,0l24.7229,0l0,6.867432l0,6.867432l-21.975876,0c-12.086807,0 -21.975952,0.549561 -21.975952,1.236328c0,0.686523 2.747025,3.708496 6.043411,6.72998c10.850586,10.026611 27.19516,10.30127 38.32045,0.412109c2.197601,-1.922852 2.746979,-1.922852 3.708435,-0.137207c0.686737,1.098877 2.884323,4.669434 4.669891,7.691406c3.296387,5.356689 3.433762,5.768799 1.098785,7.828857c-7.554214,6.867676 -28.293976,10.85083 -40.518082,7.828857z"/>
  </g>
 </g>
 <g>
  <title>Layer 2</title>
  <rect fill="none" y="0" x="0" height="100%" width="100%" id="backgroundrect"/>
 </g>
 <g>
  <title>background</title>
  <rect fill="none" id="canvas_background" height="402" width="582" y="-1" x="-1"/>
 </g>
</svg>