<svg xmlns="http://www.w3.org/2000/svg" xmlns:xlink="http://www.w3.org/1999/xlink" width="120.09" height="126.11" viewBox="0 0 120.09 126.11"><defs><clipPath id="a"><circle cx="60.05" cy="60.05" r="60.05" style="fill:none"/></clipPath></defs><title>icon_popup_01_autenticacao</title><circle cx="60.05" cy="60.05" r="60.05" style="fill:#eaeaea"/><g style="clip-path:url(#a)"><path d="M54.64,20.36a1.87,1.87,0,0,0-2.16-1.54c-29.84,5-31.18,34.77-31.19,35.07a1.88,1.88,0,0,0,1.81,1.94h.06A1.88,1.88,0,0,0,25,54c0-.27,1.22-27,28.07-31.5A1.88,1.88,0,0,0,54.64,20.36Z" style="fill:#333"/><path d="M93.73,46.08A1.88,1.88,0,0,0,95,43.74C88.58,22.26,67,18.39,66.09,18.24a1.88,1.88,0,0,0-.63,3.7c.82.14,20.2,3.67,25.94,22.88a1.87,1.87,0,0,0,2.34,1.26Z" style="fill:#333"/><path d="M80.22,35.92c-7.67-7-15.59-10.07-23.55-9.2-12.91,1.4-21,12.7-21.38,13.18a1.88,1.88,0,1,0,3.06,2.17c.07-.1,7.48-10.39,18.72-11.62,6.85-.75,13.79,2,20.62,8.24a1.88,1.88,0,1,0,2.53-2.78Z" style="fill:#333"/><path d="M34.86,46.07a1.88,1.88,0,0,0-2.42,1.08,27.22,27.22,0,0,0-1.58,8.76c-.08,1.93-.06,3.92,0,5.84.05,6.36.1,12.94-3.24,18.25a11.83,11.83,0,0,1-3,3.29,1.88,1.88,0,0,0,2.13,3.09A15.54,15.54,0,0,0,30.75,82c3.93-6.24,3.87-13.38,3.82-20.28,0-2,0-3.82,0-5.66a23.64,23.64,0,0,1,1.34-7.57A1.88,1.88,0,0,0,34.86,46.07Z" style="fill:#333"/><path d="M24.88,61.71a1.88,1.88,0,0,0-3.7.63c0,.08,1.38,8.46-1.83,14.11a1.88,1.88,0,1,0,3.26,1.85C26.48,71.48,24.95,62.1,24.88,61.71Z" style="fill:#333"/><path d="M55.74,37.87a1.88,1.88,0,0,0-2.34-1.26c-.5.15-12.37,3.86-13.77,17.14,0,.07-.52,7.3-.39,18.09a1.9,1.9,0,0,0,.06.42,11.53,11.53,0,0,1,3.69-1c-.1-10.33.38-17.2.38-17.21C44.5,43.4,54.08,40.33,54.49,40.21A1.88,1.88,0,0,0,55.74,37.87Z" style="fill:#333"/><path d="M75.92,72.86a11.66,11.66,0,0,1,2.87.5,118.26,118.26,0,0,0,.39-19.61v-.12c-2.29-16.11-17.39-17.78-17.54-17.8a1.88,1.88,0,0,0-.37,3.74A16.64,16.64,0,0,1,75.45,54.09a118.17,118.17,0,0,1-.3,18C75.41,72.34,75.68,72.58,75.92,72.86Z" style="fill:#333"/><path d="M87.51,76.71c2-18.46-.26-28.68-.38-29.18a1.88,1.88,0,0,0-3.65.86c0,.11,2.25,9.92.33,27.62A11.57,11.57,0,0,1,87.51,76.71Z" style="fill:#333"/><path d="M94.86,50.15a1.88,1.88,0,0,0-1.74,2c0,.17,1.14,16.65-.62,28.15A10.85,10.85,0,0,1,94.43,84a1.88,1.88,0,0,0,1.51-1.51c2.2-12,1-29.84.92-30.6A1.88,1.88,0,0,0,94.86,50.15Z" style="fill:#333"/><path d="M48.21,72v0h0Z" style="fill:#333"/><path d="M83.48,79.74a7.93,7.93,0,0,0-1.7.19,7.7,7.7,0,0,0-6.4-3.33,8,8,0,0,0-1.31.11,7.74,7.74,0,0,0-7.15-3.93V52a7.48,7.48,0,0,0-15,0V80.28c-.73-1-1.46-1.9-2.18-2.71a7.76,7.76,0,0,0-10.72-.78c-5,4.12-1.11,11.16,1.69,16.31a35.55,35.55,0,0,1,1.91,3.81c.82,2.2,1.68,4.47,2.58,6.49a52.51,52.51,0,0,0,6,11.75C53.51,118.65,55,121,55,125.91a3.06,3.06,0,0,0,3.07,3H81.44a3.06,3.06,0,0,0,3.08-3c0-1.44,1.19-3.75,2.35-6,2-3.88,4.23-8.28,4.23-13.61V97.86c0-.11,0-.22,0-.32V87A7.47,7.47,0,0,0,83.48,79.74Zm3.87,18v8.53c0,4.43-2,8.4-3.84,11.93-1.27,2.47-2.48,4.82-2.71,7h-22c-.15-5.58-2-8.47-4.38-12.11a49.09,49.09,0,0,1-5.63-11l-.06-.14c-.87-1.93-1.71-4.17-2.52-6.34A37.56,37.56,0,0,0,44,91.3c-2.18-4-5.16-9.48-2.58-11.63a4,4,0,0,1,5.52.39,46.58,46.58,0,0,1,5.24,7.48,1.88,1.88,0,0,0,3.5-.94V52a3.65,3.65,0,0,1,3.67-3.72A3.72,3.72,0,0,1,63.17,52v23.1a1.88,1.88,0,0,0,2.55,1.75,4.4,4.4,0,0,1,1.57-.29,3.8,3.8,0,0,1,3.81,2.86,1.88,1.88,0,0,0,2.6,1.33,4.1,4.1,0,0,1,1.68-.35A3.88,3.88,0,0,1,79,82.6a1.83,1.83,0,0,0,.15.28,1.88,1.88,0,0,0,2.57,1,4.09,4.09,0,0,1,1.77-.4A3.72,3.72,0,0,1,87.36,87V97.53A1.82,1.82,0,0,0,87.35,97.76Z" style="fill:#333"/></g></svg>