<?xml version="1.0" encoding="utf-8"?>
<!-- Generator: Adobe Illustrator 22.0.0, SVG Export Plug-In . SVG Version: 6.00 Build 0)  -->
<svg version="1.1"
	 id="Camada_1" xmlns:cc="http://creativecommons.org/ns#" xmlns:dc="http://purl.org/dc/elements/1.1/" xmlns:inkscape="http://www.inkscape.org/namespaces/inkscape" xmlns:rdf="http://www.w3.org/1999/02/22-rdf-syntax-ns#" xmlns:sodipodi="http://sodipodi.sourceforge.net/DTD/sodipodi-0.dtd" xmlns:svg="http://www.w3.org/2000/svg"
	 xmlns="http://www.w3.org/2000/svg" xmlns:xlink="http://www.w3.org/1999/xlink" x="0px" y="0px" viewBox="0 0 424 384.5"
	 style="enable-background:new 0 0 424 384.5;" xml:space="preserve">
<style type="text/css">
	.st0{fill:#231F20;}
</style>
<g transform="translate(0,-952.36218)">
	<path class="st0" d="M278.7,1010c-29,0.3-58.5,23.9-83.7,45.6l-16.8-23.1c-1-1.3-2.6-2.1-4.2-2c-0.9,0.1-1.8,0.4-2.5,0.9
		l-101.3,71.8c-1,0.7-1.7,1.7-2,2.9l-38,154.5c-0.6,2.6,1,5.2,3.7,5.8c0.4,0.1,0.7,0.1,1.1,0.1h48.6c2.1,0,4-1.4,4.6-3.4l30.2-104.6
		c7.1,1.6,13.4,3.3,19.3,4.8c-4.4,11.6-8.2,21.7-8.3,32.6c-0.2,12.5,4.5,25.6,16.6,42c1.6,2.2,4.7,2.7,6.9,1.1s2.7-4.7,1.1-6.9l0,0
		c-11.4-15.4-14.9-26-14.8-36.1c0.1-9.1,3.6-18.5,8.2-30.5c11.9,2.6,21.8,3.6,31.2,1.1c8.5-2.3,16.3-7.7,24.4-16.8
		c8.1-9.1,16.7-22,27.6-40c1-1.6,0.9-3.7-0.1-5.3l-19.9-27.6c26.3-21.7,52.6-42.4,76.5-35.1l65.5,19.9l7-29.6l-68.9-21
		C286.6,1010.3,282.6,1010,278.7,1010L278.7,1010z M173,1042.1l47.3,65.4c-9.7,15.9-17.8,28.3-24.7,35.9
		c-7.4,8.2-13.4,12.2-19.7,13.9c-12.6,3.4-29.3-2.6-60-9.2c-2.5-0.5-5,1-5.7,3.4L79.8,1257H41.1l36.2-146.9L173,1042.1z
		 M350.7,1084.8c-1.5,0.1-2.9,0.9-3.7,2.1c-6.2,8.8-13.6,20-19.5,31.2s-10.7,22.2-10.7,32c0,18.8,15.4,34.2,34.2,34.2
		c18.8,0,34.1-15.4,34.1-34.2c0-9.8-4.6-20.8-10.6-32c-5.9-11.2-13.3-22.3-19.5-31.2C353.9,1085.5,352.3,1084.7,350.7,1084.8z
		 M350.9,1098.8c5.1,7.5,10.5,15.5,14.9,23.9c5.6,10.6,9.5,21,9.5,27.3c0,13.5-10.9,24.6-24.4,24.6s-24.4-11-24.4-24.6
		c0-6.4,3.9-16.7,9.5-27.3C340.4,1114.3,345.8,1106.3,350.9,1098.8z"/>
</g>
</svg>
