<svg xmlns="http://www.w3.org/2000/svg" width="24.84" height="18.88" viewBox="0 0 24.84 18.88"><title>licon_forms_invisivel</title><path d="M24.74,9.29a12.89,12.89,0,0,0-3.5-3.87A14.38,14.38,0,0,0,16.3,3.08a15.28,15.28,0,0,0-3.84-.49h-.56l-.33,0h-.11l-.88.08h-.06l-.4.06h0l-.9.17h0L9,3l8,8a5.14,5.14,0,0,0-1.54-6.66l.18,0a12.19,12.19,0,0,1,4.12,1.88A10.52,10.52,0,0,1,22.7,9.36a.56.56,0,0,1,.08.21.54.54,0,0,1,0,.15.56.56,0,0,1-.08.21l-.17.27,0,.07-.18.26,0,0-.16.22-.07.09-.16.21-.1.12-.12.14-.11.12-.1.11-.21.22-.06.07q-.24.24-.5.47l0,0q-.27.24-.56.47h0c-.24.18-.5.35-.76.51l1.09,1.09a13.9,13.9,0,0,0,1.2-.83h0q.35-.28.68-.58l0,0q.31-.28.6-.59l.08-.08.25-.28.12-.13.13-.15.14-.17.12-.14.2-.26.08-.11.19-.27,0,0,.21-.32.05-.09.21-.34a.71.71,0,0,0,.09-.27.7.7,0,0,0,0-.18A.71.71,0,0,0,24.74,9.29Z" style="fill:#333"/><path d="M4.27.28A1,1,0,0,0,2.91,1.65l2.61,2.6-.18.08h0L5,4.5l-.5.3a14,14,0,0,0-1.33.92h0q-.35.28-.68.58l0,0q-.31.28-.6.59L1.83,7l-.25.28-.12.13-.13.15-.14.17-.11.14-.2.26-.08.11L.6,8.5l0,0-.21.32L.3,9,.1,9.3A.72.72,0,0,0,0,9.48a.7.7,0,0,0,0,.37A.72.72,0,0,0,.1,10a12.89,12.89,0,0,0,3.5,3.87,14.38,14.38,0,0,0,4.94,2.34,15.28,15.28,0,0,0,3.84.49h.56l.33,0h.11l.88-.08h.06l.4-.06h0l.9-.17h0l.44-.11h0l.12,0,.54-.14.45-.15,2.68,2.67a1,1,0,0,0,1.36-1.36ZM16.05,14.83l-.45.12-.1,0h0l-.37.08h0l-.75.14h0l-.33,0H14l-.73.07h-.84a13.18,13.18,0,0,1-3.2-.39,12.19,12.19,0,0,1-4.12-1.88A10.52,10.52,0,0,1,2.14,9.95a.57.57,0,0,1-.06-.14.54.54,0,0,1,0-.3.57.57,0,0,1,.06-.14l.17-.27,0-.07.18-.26,0,0,.16-.22.07-.09L3,8.22l.1-.11L3.17,8l.11-.12.1-.11.21-.22.06-.07q.24-.24.5-.47l0,0q.27-.24.56-.47h0a11.69,11.69,0,0,1,1.11-.74l.42-.24.26-.14h0l.09,0L7.68,6.41A5.11,5.11,0,0,0,7.2,8.55a5.22,5.22,0,0,0,5.22,5.22,5,5,0,0,0,2.15-.5l1.54,1.54Z" style="fill:#333"/></svg>