<svg xmlns="http://www.w3.org/2000/svg" width="50.5" height="35.99" viewBox="0 0 50.5 35.99"><title>icon_lists_pagamentos</title><path d="M5.82,30.4H9.63a.85.85,0,1,0,0-1.71H5.84a.85.85,0,0,0,0,1.71Z" style="fill:#333"/><path d="M15.05,0a4,4,0,0,0-4,4V24.83a4,4,0,0,0,4,4H46.54a4,4,0,0,0,4-4V4a4,4,0,0,0-4-4Zm0,1.41H46.54A2.53,2.53,0,0,1,49.09,4V7H12.5V4A2.53,2.53,0,0,1,15.05,1.41Zm-2.55,12H49.09V24.83a2.53,2.53,0,0,1-2.55,2.55H15.05a2.53,2.53,0,0,1-2.55-2.55ZM16.8,18a.7.7,0,0,0,0,1.41h8.88a.7.7,0,0,0,0-1.41Zm0,3.8a.7.7,0,1,0,0,1.41h3.81a.7.7,0,1,0,0-1.41H16.8Z" style="fill:#333"/><path d="M38,28.64v3.24a2.38,2.38,0,0,1-2.4,2.4H4.11a2.38,2.38,0,0,1-2.4-2.4V20.56h9.39V13.95H1.71V11a2.37,2.37,0,0,1,2.4-2.4h7V6.9h-7A4.11,4.11,0,0,0,0,11V31.88A4.11,4.11,0,0,0,4.11,36H35.6a4.11,4.11,0,0,0,4.11-4.11V28.64Z" style="fill:#333"/><path d="M11.1,24.9H5.84a.85.85,0,0,0,0,1.71h5.69A3.93,3.93,0,0,1,11.1,24.9Z" style="fill:#333"/></svg>