<svg xmlns="http://www.w3.org/2000/svg" width="28.43" height="35.42" viewBox="0 0 28.43 35.42"><title>icon_lists_fatura</title><path d="M15.2,18.07h7.31a.92.92,0,0,0,0-1.85H15.2a.92.92,0,1,0,0,1.85Z" style="fill:#333"/><path d="M15.2,12.13h7.31a.92.92,0,0,0,0-1.85H15.2a.92.92,0,0,0,0,1.85Z" style="fill:#333"/><path d="M15.2,24h7.31a.92.92,0,1,0,0-1.85H15.2a.92.92,0,1,0,0,1.85Z" style="fill:#333"/><path d="M7.85,17.85H9.2a1,1,0,0,1,.75.32,1,1,0,0,1,.3.73,1,1,0,0,1-1,1H7.85a1,1,0,0,1-.92-.56.89.89,0,1,0-1.58.8,2.84,2.84,0,0,0,2.3,1.52v1.22a.89.89,0,0,0,1.78,0V21.69A2.82,2.82,0,0,0,12,18.89,2.82,2.82,0,0,0,9.2,16.07H7.85a1,1,0,0,1-1-1,1,1,0,0,1,.3-.73,1.06,1.06,0,0,1,.73-.3H9.19a1,1,0,0,1,.92.56.89.89,0,1,0,1.58-.8,2.73,2.73,0,0,0-2.27-1.51V11a.89.89,0,0,0-1.78,0v1.23a2.71,2.71,0,0,0-1.77.79,2.8,2.8,0,0,0,2,4.79Z" style="fill:#333"/><path d="M28.43,27.74V14.16q0-3.9,0-7.81V4.17q0-1.6,0-3.19a1,1,0,0,0-1-1H1A1,1,0,0,0,.29.28,1,1,0,0,0,0,1q0,1.48,0,3T0,6.61v.32c0,.25,0,.5,0,.76V21.27q0,3.9,0,7.81v2.18q0,1.6,0,3.19a1,1,0,0,0,1,1H27.46a1,1,0,0,0,1-1q0-1.51,0-3,0-1.32,0-2.63V28.5C28.43,28.24,28.43,28,28.43,27.74ZM1.93,6h0q0-1,0-1.92t0-2.17H26.49q0,6.06,0,12.12v2.78q0,6,0,11.95v.61h0q0,1,0,1.92t0,2.17H1.94q0-6.06,0-12.12V19.15q0-6.26,0-12.52V6Z" style="fill:#333"/></svg>