<svg xmlns="http://www.w3.org/2000/svg" width="29.36" height="29.42" viewBox="0 0 29.36 29.42"><title>icon_menu_conta</title><path d="M6.57,23.69a.72.72,0,0,0,.88-.58,7.41,7.41,0,0,1,14.65,0,.68.68,0,0,0,.45.54.84.84,0,0,0,.8-.14.63.63,0,0,0,.2-.63,8.7,8.7,0,0,0-6.7-7.24l-.38-.09.36-.15a5.31,5.31,0,1,0-4.12,0l.36.15-.38.09A8.88,8.88,0,0,0,6,22.88.66.66,0,0,0,6.57,23.69ZM11,10.5a3.83,3.83,0,0,1,7.66,0,3.91,3.91,0,0,1-3.86,3.86A3.83,3.83,0,0,1,11,10.5Z" style="fill:#333"/><path d="M14.78-.11A14.55,14.55,0,1,0,29.33,14.44,14.57,14.57,0,0,0,14.78-.11Zm0,27.65a13.1,13.1,0,1,1,13.1-13.1A13.12,13.12,0,0,1,14.78,27.54Z" style="fill:#333"/></svg>