<svg xmlns="http://www.w3.org/2000/svg" width="29.48" height="21.6" viewBox="0 0 29.48 21.6"><title>icon_menu_pagamentos</title><path d="M26.43,0H3A3.05,3.05,0,0,0,0,3v15.5a3.05,3.05,0,0,0,3,3H26.43a3.05,3.05,0,0,0,3-3V3A3.05,3.05,0,0,0,26.43,0Zm1.78,10.14v8.4a1.76,1.76,0,0,1-1.78,1.78H3a1.76,1.76,0,0,1-1.78-1.78v-8.4Zm0-7.1V5.23H1.27V3A1.76,1.76,0,0,1,3,1.27H26.43A1.76,1.76,0,0,1,28.21,3Z" style="fill:#333"/><path d="M4.29,14.54h6.55a.63.63,0,0,0,0-1.26H4.31a.63.63,0,0,0,0,1.26Z" style="fill:#333"/><path d="M4.29,17.34H7.1a.63.63,0,1,0,0-1.26H4.31a.63.63,0,0,0,0,1.26Z" style="fill:#333"/></svg>