<svg xmlns="http://www.w3.org/2000/svg" width="24.84" height="18.88" viewBox="0 0 24.84 18.88"><title>licon_forms_visivel</title><path d="M24.79,9.08a12.89,12.89,0,0,0-3.5-3.87,14.38,14.38,0,0,0-4.94-2.34,15.28,15.28,0,0,0-3.84-.49H12l-.33,0h-.11l-.88.08h-.06l-.4.06h0l-.9.17h0l-.44.11h0l-.12,0L8.11,3a14.74,14.74,0,0,0-2.73,1.1h0l-.32.18-.5.3a14,14,0,0,0-1.33.92h0q-.35.28-.68.58l0,0q-.31.28-.6.59l-.08.08-.25.28L1.5,7.2l-.13.15-.14.17-.11.14-.2.26L.84,8,.65,8.3l0,0L.4,8.67l-.05.09-.21.34a.72.72,0,0,0-.07.18.7.7,0,0,0,0,.37.72.72,0,0,0,.07.18,12.89,12.89,0,0,0,3.5,3.87A14.38,14.38,0,0,0,8.58,16a15.28,15.28,0,0,0,3.84.49H13l.33,0h.11l.88-.08h.06l.4-.06h0l.9-.17h0l.44-.11h0l.12,0,.54-.14a14.73,14.73,0,0,0,2.73-1.1h0l.32-.18.5-.3a14,14,0,0,0,1.33-.92h0q.35-.28.68-.58l0,0q.31-.28.6-.59l.08-.08.25-.28.12-.13.13-.15.14-.17.12-.14L24,11l.08-.11.19-.27,0,0,.21-.32.05-.09.21-.34a.71.71,0,0,0,.09-.27.7.7,0,0,0,0-.18A.71.71,0,0,0,24.79,9.08ZM11.7,4.62A.7.7,0,0,1,11.82,6a1.53,1.53,0,0,0-1.27,1.74.7.7,0,0,1-.64.76H9.85a.7.7,0,0,1-.7-.65A2.93,2.93,0,0,1,11.7,4.62Zm11.11,4.9a.56.56,0,0,1-.08.21l-.17.27,0,.07-.18.26,0,0-.16.22-.07.09-.16.21-.1.12-.12.14-.11.12-.1.11-.21.22-.06.07q-.24.24-.5.47l0,0q-.27.24-.56.47h0a11.67,11.67,0,0,1-1.11.74l-.42.24-.26.14h0a12.54,12.54,0,0,1-2.28.88l-.45.12-.1,0h0l-.37.08h0l-.75.14h0L14,15H14l-.73.07h-.84a13.18,13.18,0,0,1-3.2-.39,12.19,12.19,0,0,1-4.12-1.88A10.52,10.52,0,0,1,2.19,9.74a.57.57,0,0,1-.06-.14.54.54,0,0,1,0-.3.57.57,0,0,1,.06-.14l.17-.27,0-.07.18-.26,0,0,.16-.22.07-.09L3,8l.1-.11.12-.14.11-.12.1-.11.21-.22.06-.07q.24-.24.5-.47l0,0q.27-.24.56-.47h0a11.69,11.69,0,0,1,1.11-.74l.42-.24.26-.14h0a12.54,12.54,0,0,1,2.28-.88l.45-.12.1,0h0a5.22,5.22,0,1,0,6.13,0l.18,0A12.19,12.19,0,0,1,19.82,6a10.52,10.52,0,0,1,2.92,3.12.56.56,0,0,1,.08.21A.54.54,0,0,1,22.82,9.52Z" style="fill:#333"/></svg>