<svg xmlns="http://www.w3.org/2000/svg" width="22.37" height="16.7" viewBox="0 0 22.37 16.7"><title>icon_posto_distancia</title><path d="M22.37,5.81c0-.65-.41-1.36-1-1.36H19.78L18.67,1.91a.63.63,0,0,0-.08-.14C17.64.46,16.87,0,15.64,0H6.72A3.31,3.31,0,0,0,3.79,1.78l-.07.12L2.59,4.44H1c-.64,0-1,.69-1,1.35A1.7,1.7,0,0,0,1.26,7.45L.9,8.34a.71.71,0,0,0-.06.28c0,1.09,0,2.2,0,3.27s0,2.18,0,3.26A1.53,1.53,0,0,0,2.41,16.7H5.15A1.53,1.53,0,0,0,6.7,15.15V14.07h9v1.08a1.55,1.55,0,0,0,1.55,1.55H20a1.53,1.53,0,0,0,1.55-1.55c0-.88,0-1.77,0-2.65v-.61c0-1.07,0-2.18,0-3.27a.74.74,0,0,0-.06-.28l-.37-.88A1.69,1.69,0,0,0,22.37,5.81Zm-6,6.8H6a.73.73,0,0,0-.73.73v1.82c0,.06,0,.08-.08.08H2.41c-.06,0-.08,0-.08-.08,0-.88,0-1.78,0-2.66v-.61c0-1,0-2.08,0-3.12L3,7.16a.73.73,0,0,0-.66-1c-.51,0-.76-.13-.81-.24H3.06a.73.73,0,0,0,.67-.43L5,2.58c.68-1,1.08-1.12,1.71-1.12h8.92c.64,0,1,.15,1.71,1.07l1.28,2.93a.73.73,0,0,0,.67.44h1.59c-.05.11-.33.23-.82.24a.74.74,0,0,0-.6.33h0a.73.73,0,0,0-.06.68l.67,1.6c0,1,0,2.09,0,3.11s0,2.18,0,3.27c0,.06,0,.08-.08.08H17.21s-.08,0-.08-.08V13.34A.73.73,0,0,0,16.4,12.6Z" style="fill:#333"/></svg>