<?xml version="1.0" encoding="utf-8"?>
<!-- Generator: Adobe Illustrator 24.0.1, SVG Export Plug-In . SVG Version: 6.00 Build 0)  -->
<svg version="1.1" id="Layer_1" xmlns="http://www.w3.org/2000/svg" xmlns:xlink="http://www.w3.org/1999/xlink" x="0px" y="0px"
	 viewBox="0 0 30.9 30.9" style="enable-background:new 0 0 30.9 30.9;" xml:space="preserve">
<path d="M12.4,22.9c0,0.7-0.5,1.2-1.2,1.2S10,23.5,10,22.9v-12c0-0.7,0.5-1.2,1.2-1.2s1.2,0.5,1.2,1.2V22.9z M17.2,22.9
	c0,0.7-0.5,1.2-1.2,1.2s-1.2-0.5-1.2-1.2v-12c0-0.7,0.5-1.2,1.2-1.2s1.2,0.5,1.2,1.2V22.9z M22.1,22.9c0,0.7-0.5,1.2-1.2,1.2
	s-1.2-0.5-1.2-1.2v-12c0-0.7,0.5-1.2,1.2-1.2s1.2,0.5,1.2,1.2V22.9z M28.1,2.4v2.4H4V2.4h6.9c1.1,0,2-1.3,2-2.4h6.4
	c0,1.1,0.9,2.4,2,2.4H28.1z M24.5,7.2v19.3H7.6V7.2H5.2v21.7h21.7V7.2H24.5z" fill="#E2342B"/>
</svg>
