<svg xmlns="http://www.w3.org/2000/svg" width="58.78" height="58.78" viewBox="0 0 58.78 58.78"><title>icon_posto_combustivel_xl</title><path d="M29.39,0A29.39,29.39,0,1,0,58.78,29.39,29.42,29.42,0,0,0,29.39,0Zm0,57.78A28.39,28.39,0,1,1,57.78,29.39,28.42,28.42,0,0,1,29.39,57.78Z" style="fill:#333"/><path d="M35.73,20.84,30.55,12a1.55,1.55,0,0,0-1.43-.7,1.42,1.42,0,0,0-1.21.82l-5,8.84c-.47.82-1,1.65-1.49,2.45-2.24,3.61-4.56,7.35-4.53,11.77A12.58,12.58,0,0,0,29.43,47.6h.11a12.35,12.35,0,0,0,8.8-3.76,12.52,12.52,0,0,0,3.56-8.89c0-4.35-2.34-8-4.57-11.51C36.77,22.55,36.23,21.7,35.73,20.84Zm.44,20.83a9.38,9.38,0,0,1-6.66,2.82v.18h0l0-.17A9.47,9.47,0,0,1,20,35.13c0-3.55,2-7,4-10.29.51-.85,1-1.64,1.44-2.44l3.79-6.57,3.83,6.5c.48.82,1,1.63,1.57,2.54,2.06,3.24,4.18,6.59,4.22,10.09A9.39,9.39,0,0,1,36.17,41.67Z" style="fill:#333"/><path d="M29.87,37.9a5.34,5.34,0,0,1-4.3-3.76,1.38,1.38,0,0,0-.62-.94A1.49,1.49,0,0,0,23.76,33a1.38,1.38,0,0,0-.95.62,1.49,1.49,0,0,0-.16,1.23,8.4,8.4,0,0,0,6.84,6l.19,0a1.52,1.52,0,0,0,.17-3Z" style="fill:#333"/></svg>