<svg xmlns="http://www.w3.org/2000/svg" width="29.36" height="29.91" viewBox="0 0 29.36 29.91"><title>icon_menu_termos</title><path d="M26.39,23.47V17.68c0-5.48,0-11.16,0-16.73a.81.81,0,0,0-.8-.8H3.49a.81.81,0,0,0-.8.8c0,9.26,0,17.36,0,24.77a1.56,1.56,0,0,0,.37,1c.61.7,1.24,1.41,1.85,2.1l.8.88a.81.81,0,0,0,.58.25h0a.81.81,0,0,0,.58-.27l2.16-2.42,2.14,2.4a.81.81,0,0,0,.6.27.8.8,0,0,0,.6-.27l2.19-2.43,2.16,2.42a.8.8,0,0,0,1.2,0l2.18-2.43,2.12,2.39a.81.81,0,0,0,.6.27.8.8,0,0,0,.6-.27l.66-.73c.63-.7,1.28-1.42,1.9-2.13a1.61,1.61,0,0,0,.38-1C26.4,25,26.39,24.21,26.39,23.47ZM24.78,25.7c-.64.72-1.29,1.45-1.93,2.16l-2.12-2.39a.81.81,0,0,0-.6-.27.8.8,0,0,0-.6.27L17.34,27.9l-2.16-2.43a.81.81,0,0,0-.6-.27.8.8,0,0,0-.6.27L11.8,27.89l-2.14-2.4a.81.81,0,0,0-.6-.27.8.8,0,0,0-.6.27L6.28,27.92l-.18-.2c-.55-.61-1.19-1.33-1.81-2,0-8.56,0-16.89,0-23.93H24.77c0,5.31,0,10.71,0,15.93v5.59c0,.79,0,1.61,0,2.43Z" style="fill:#333"/><path d="M21.63,12.26H7.94a.8.8,0,0,0,0,1.61H21.63a.8.8,0,0,0,0-1.61Z" style="fill:#333"/><path d="M21.63,7H7.94a.8.8,0,0,0,0,1.61H21.63a.8.8,0,0,0,0-1.61Z" style="fill:#333"/><path d="M21.63,17.56H7.94a.8.8,0,0,0,0,1.61H21.63a.8.8,0,0,0,0-1.61Z" style="fill:#333"/></svg>