<svg xmlns="http://www.w3.org/2000/svg" width="29.36" height="29.42" viewBox="0 0 29.36 29.42"><title>icon_menu_contactos</title><path d="M20.88,28.86C17.61,28.86,12.93,26,8,21.12A33.83,33.83,0,0,1,1.4,12.3c-1.85-3.92-1-6,.09-7.09A16.49,16.49,0,0,1,5,2.62,2.64,2.64,0,0,1,8.1,3.4L11,7.14a2.6,2.6,0,0,1-.34,3.58c-.56.49-1.25,1.1-1.37,1.22-.43.43.1,2,3,4.87s4.47,3.46,4.9,3l.06-.06c.07-.06.33-.36.58-.65l.58-.66A2.6,2.6,0,0,1,22,18.12l3.73,2.93h0a2.57,2.57,0,0,1,.74,3.06,16.51,16.51,0,0,1-2.58,3.54,4.12,4.12,0,0,1-3,1.19ZM6,4a1,1,0,0,0-.39.08A15.08,15.08,0,0,0,2.59,6.3c-1.29,1.3-.59,3.62.21,5.33A32.79,32.79,0,0,0,9.14,20c4.47,4.49,9,7.28,11.73,7.28h0a2.59,2.59,0,0,0,1.94-.73,15.07,15.07,0,0,0,2.26-3.06,1,1,0,0,0-.29-1.23l-3.73-2.93a1,1,0,0,0-1.44.15l-.57.65a9.56,9.56,0,0,1-.75.82c-.56.54-1.6,1-3.39,0a18.39,18.39,0,0,1-3.69-3,17.9,17.9,0,0,1-3-3.67c-1-1.81-.56-2.84,0-3.4.13-.13.53-.49,1.44-1.29a1,1,0,0,0,.15-1.44L6.88,4.37A1.09,1.09,0,0,0,6,4Z" style="fill:#333"/><path d="M22,14.22h.06a.69.69,0,0,0,.49-.21.73.73,0,0,0,.21-.58,7.69,7.69,0,0,0-7-7h-.06a.73.73,0,0,0-.52.22.69.69,0,0,0-.2.53.71.71,0,0,0,.66.68,6.16,6.16,0,0,1,3.91,1.83,6.32,6.32,0,0,1,1.83,3.89A.66.66,0,0,0,22,14.22Z" style="fill:#333"/><path d="M14.09.49a.69.69,0,0,0-.68.74.73.73,0,0,0,.69.68A13.65,13.65,0,0,1,27.22,15.06a.7.7,0,0,0,.66.68H28a.69.69,0,0,0,.5-.22.67.67,0,0,0,.19-.49A14.93,14.93,0,0,0,24.29,4.87,15.1,15.1,0,0,0,14.13.49" style="fill:#333"/></svg>