<svg xmlns="http://www.w3.org/2000/svg" width="21.79" height="36.69" viewBox="0 0 21.79 36.69"><title>icon_lists_phone</title><path d="M21.79,3a3,3,0,0,0-3-3H3A3,3,0,0,0,0,3V33.69a3,3,0,0,0,3,3H18.79a3,3,0,0,0,3-3ZM3.15,1.55h15.5a1.7,1.7,0,0,1,1.71,1.68V6.12H1.43V3.23A1.7,1.7,0,0,1,3.15,1.55Zm15.5,33.59H3.15a1.7,1.7,0,0,1-1.71-1.68v-4H20.36v4A1.7,1.7,0,0,1,18.64,35.14Z" style="fill:#333"/><path d="M10.89,30.57a1.66,1.66,0,1,0,1.66,1.66h0A1.66,1.66,0,0,0,10.89,30.57Z" style="fill:#333"/><path d="M11,3a.63.63,0,1,1-.63.63A.63.63,0,0,1,11,3Z" style="fill:#333"/><path d="M8.23,3a.63.63,0,1,1-.63.63A.63.63,0,0,1,8.23,3Z" style="fill:#333"/><path d="M13.7,3a.63.63,0,1,1-.63.63A.63.63,0,0,1,13.7,3Z" style="fill:#333"/></svg>