<svg xmlns="http://www.w3.org/2000/svg" width="23.4" height="23.1" viewBox="0 0 23.4 23.1"><title>icon_lists_filtrar</title><path d="M6.6,17.1a3.3,3.3,0,0,0-2.4-3.17V.9A.9.9,0,1,0,2.4.9v13a3.29,3.29,0,0,0,0,6.34v1.92a.9.9,0,1,0,1.8,0V20.27A3.3,3.3,0,0,0,6.6,17.1ZM3.3,18.61a1.5,1.5,0,1,1,1.5-1.5,1.5,1.5,0,0,1-1.5,1.5Z" style="fill:#333"/><path d="M23.4,17.1A3.3,3.3,0,0,0,21,13.93V.9a.9.9,0,1,0-1.8,0h0v13a3.29,3.29,0,0,0,0,6.34v1.92a.9.9,0,1,0,1.8,0h0V20.27A3.3,3.3,0,0,0,23.4,17.1Zm-3.3,1.51a1.5,1.5,0,1,1,1.5-1.5,1.5,1.5,0,0,1-1.5,1.5Z" style="fill:#333"/><path d="M8.4,6a3.3,3.3,0,0,0,2.4,3.17v13a.9.9,0,0,0,1.8,0v-13a3.29,3.29,0,0,0,0-6.34V.91a.9.9,0,1,0-1.8,0h0V2.83A3.3,3.3,0,0,0,8.4,6Zm3.3-1.51A1.5,1.5,0,1,1,10.2,6a1.5,1.5,0,0,1,1.5-1.5Z" style="fill:#333"/></svg>