<svg xmlns="http://www.w3.org/2000/svg" width="28.43" height="35.42" viewBox="0 0 28.43 35.42"><title>icon_lists_extrato</title><path d="M6.3,7.25h6.1a1,1,0,1,0,0-1.93H6.3a1,1,0,1,0,0,1.93Z" style="fill:#333"/><path d="M15.43,7.25h1.8a1,1,0,1,0,0-1.93h-1.8a1,1,0,0,0,0,1.93Z" style="fill:#333"/><path d="M20.06,7.25h1.8a1,1,0,1,0,0-1.93h-1.8a1,1,0,1,0,0,1.93Z" style="fill:#333"/><path d="M6.3,15.09h6.1a1,1,0,0,0,0-1.93H6.3a1,1,0,1,0,0,1.93Z" style="fill:#333"/><path d="M15.43,15.09h1.8a1,1,0,0,0,0-1.93h-1.8a1,1,0,0,0,0,1.93Z" style="fill:#333"/><path d="M20.06,15.09h1.8a1,1,0,1,0,0-1.93h-1.8a1,1,0,0,0,0,1.93Z" style="fill:#333"/><path d="M6.3,22.93h6.1a1,1,0,1,0,0-1.93H6.3a1,1,0,1,0,0,1.93Z" style="fill:#333"/><path d="M15.43,22.93h1.8a1,1,0,1,0,0-1.93h-1.8a1,1,0,0,0,0,1.93Z" style="fill:#333"/><path d="M20.06,22.93h1.8a1,1,0,1,0,0-1.93h-1.8a1,1,0,1,0,0,1.93Z" style="fill:#333"/><path d="M6.3,19h6.1a1,1,0,0,0,0-1.93H6.3A1,1,0,1,0,6.3,19Z" style="fill:#333"/><path d="M15.43,19h1.8a1,1,0,0,0,0-1.93h-1.8a1,1,0,0,0,0,1.93Z" style="fill:#333"/><path d="M20.06,19h1.8a1,1,0,1,0,0-1.93h-1.8a1,1,0,0,0,0,1.93Z" style="fill:#333"/><path d="M6.3,11.17h6.1a1,1,0,0,0,0-1.93H6.3a1,1,0,1,0,0,1.93Z" style="fill:#333"/><path d="M15.43,11.17h1.8a1,1,0,0,0,0-1.93h-1.8a1,1,0,0,0,0,1.93Z" style="fill:#333"/><path d="M20.06,11.17h1.8a1,1,0,1,0,0-1.93h-1.8a1,1,0,0,0,0,1.93Z" style="fill:#333"/><path d="M6.3,29.51H22.72a1,1,0,0,0,0-1.93H6.3a1,1,0,1,0,0,1.93Z" style="fill:#333"/><path d="M28.43,27.74V14.16q0-3.9,0-7.81V4.17q0-1.6,0-3.19a1,1,0,0,0-1-1H1A1,1,0,0,0,.29.28,1,1,0,0,0,0,1q0,1.48,0,3T0,6.61v.32c0,.25,0,.5,0,.76V21.27q0,3.9,0,7.81v2.18q0,1.6,0,3.19a1,1,0,0,0,1,1H27.46a1,1,0,0,0,1-1q0-1.51,0-3,0-1.32,0-2.63V28.5C28.43,28.24,28.43,28,28.43,27.74ZM1.93,6h0q0-1,0-1.92t0-2.17H26.49q0,6.06,0,12.12v2.78q0,6,0,11.95v.61h0q0,1,0,1.92t0,2.17H1.94q0-6.06,0-12.12V19.15q0-6.26,0-12.52V6Z" style="fill:#333"/></svg>