<svg xmlns="http://www.w3.org/2000/svg" width="29.45" height="22.26" viewBox="0 0 29.45 22.26"><title>icon_menu_mensagens</title><path d="M11.45,16.6a.74.74,0,0,0,0,1.48H18a.74.74,0,0,0,0-1.48H11.45Z" style="fill:#333"/><path d="M29.43,3.31a1.08,1.08,0,0,0,0-.25A3.4,3.4,0,0,0,26.05,0H3.39A3.4,3.4,0,0,0,0,3.07a1.08,1.08,0,0,0,0,.25.63.63,0,0,0,0,.16V18.87a3.4,3.4,0,0,0,3.39,3.39H26.05a3.4,3.4,0,0,0,3.39-3.39V3.47A.64.64,0,0,0,29.43,3.31Zm-13.6,9.48a2,2,0,0,1-2.2,0L1.38,3.06a2.07,2.07,0,0,1,2-1.71H26.05a2.07,2.07,0,0,1,2,1.71ZM28.1,4.69V18.87a2,2,0,0,1-2,2H3.39a2,2,0,0,1-2-2V4.69l11.52,9.22h0a3.4,3.4,0,0,0,3.68,0h0Z" style="fill:#333"/></svg>