<svg xmlns="http://www.w3.org/2000/svg" width="11.32" height="16.44" viewBox="0 0 11.32 16.44"><title>icon_posto_combustivel_xs</title><path d="M9.25,5.5c-.25-.4-.5-.78-.72-1.17L6.19.32A.7.7,0,0,0,5.54,0,.64.64,0,0,0,5,.38l-2.27,4c-.21.37-.45.75-.67,1.11C1,7.12,0,8.81,0,10.81a5.69,5.69,0,0,0,5.68,5.63h0a5.59,5.59,0,0,0,4-1.7,5.67,5.67,0,0,0,1.61-4C11.31,8.75,10.26,7.1,9.25,5.5ZM5.7,15.12l0-.08A4.29,4.29,0,0,1,1.41,10.8c0-1.61.92-3.16,1.83-4.66.23-.38.45-.74.65-1.1l1.72-3L7.34,5c.22.37.45.74.71,1.15C9,7.62,9.94,9.14,10,10.73A4.27,4.27,0,0,1,5.72,15v.08Z" style="fill:#333"/><path d="M6.48,12.86a.72.72,0,0,0-.6-.8,2.41,2.41,0,0,1-1.94-1.7.62.62,0,0,0-.28-.43.67.67,0,0,0-.54-.08.62.62,0,0,0-.43.28.67.67,0,0,0-.07.55,3.8,3.8,0,0,0,3.1,2.74H5.8A.72.72,0,0,0,6.48,12.86Z" style="fill:#333"/></svg>