<svg xmlns="http://www.w3.org/2000/svg" xmlns:xlink="http://www.w3.org/1999/xlink" width="120.09" height="126.11" viewBox="0 0 120.09 126.11"><defs><clipPath id="a"><circle cx="60.52" cy="59.75" r="60.05" style="fill:none"/></clipPath></defs><title>icon_popup_03_pagar_pendente</title><g style="clip-path:url(#a)"><circle cx="60.52" cy="59.75" r="60.05" style="fill:#eaeaea"/><path d="M75.81,73.23c-.7-1-1.41-1.83-2.1-2.61a7.46,7.46,0,0,0-10.32-.75c-4.76,4-1.07,10.74,1.62,15.69a34.2,34.2,0,0,1,1.83,3.66c.79,2.11,1.61,4.3,2.49,6.25a50.53,50.53,0,0,0,5.78,11.3c2.19,3.37,3.63,5.6,3.63,10.36a2.94,2.94,0,0,0,3,2.92h22.48a2.94,2.94,0,0,0,3-2.92c0-1.39,1.14-3.6,2.26-5.78,1.91-3.74,4.07-8,4.07-13.1V90.14c0-.1,0-.21,0-.31V79.7a7.18,7.18,0,0,0-7.35-7,7.63,7.63,0,0,0-1.63.18,7.41,7.41,0,0,0-6.16-3.2,7.66,7.66,0,0,0-1.26.1A7.45,7.45,0,0,0,90.21,66V63.35A7.15,7.15,0,0,0,83,56.16h0v3.61h0a3.58,3.58,0,0,1,3.65,3.58v4.85a1.81,1.81,0,0,0,2.45,1.69,4.23,4.23,0,0,1,1.51-.28,3.66,3.66,0,0,1,3.67,2.75,1.81,1.81,0,0,0,2.5,1.28,4,4,0,0,1,1.62-.34,3.73,3.73,0,0,1,3.47,2.16,1.76,1.76,0,0,0,.14.27,1.81,1.81,0,0,0,2.47,1,3.94,3.94,0,0,1,1.71-.39,3.58,3.58,0,0,1,3.74,3.38V89.83a1.75,1.75,0,0,0,0,.22v8.2c0,4.26-2,8.08-3.69,11.48-1.22,2.38-2.39,4.63-2.61,6.71H82.35c-.14-5.37-1.94-8.15-4.22-11.66a47.23,47.23,0,0,1-5.42-10.6l-.05-.13C71.83,92.2,71,90,70.24,88a36.14,36.14,0,0,0-2-4.12c-2.1-3.85-5-9.12-2.48-11.19A3.85,3.85,0,0,1,71,73a44.82,44.82,0,0,1,5,7.2,1.8,1.8,0,0,0,3.35-.63h0V60.66h0V32.28a6.47,6.47,0,0,0-6.46-6.46H42.86a6.46,6.46,0,0,0-6.45,6.46V77.65a6.46,6.46,0,0,0,6.45,6.46H61.14l-1.36-3.54h-2.6V29.36H72.95a2.89,2.89,0,0,1,2.92,2.92M46.57,80.57h-3.7a2.88,2.88,0,0,1-2.91-2.92V32.28a2.89,2.89,0,0,1,2.91-2.92h3.7Z" style="fill:#333"/></g></svg>