<svg xmlns="http://www.w3.org/2000/svg" width="22.61" height="22.61" viewBox="0 0 22.61 22.61"><title>icon_posto_mapa</title><path d="M11.32,7.82a3.36,3.36,0,0,0-2.44,1,3.31,3.31,0,0,0-1,2.43,3.44,3.44,0,0,0,3.45,3.45,3.44,3.44,0,0,0,3.43-3.45,3.4,3.4,0,0,0-3.43-3.43Z" style="fill:#333"/><path d="M21.48,10.08a.58.58,0,0,0-.31-.09H19.63a8.17,8.17,0,0,0-2.42-4.7,7.91,7.91,0,0,0-4.67-2.36V1.39a.68.68,0,0,0,0-.1s0,0,0-.07a1.23,1.23,0,1,0-2.45,0s0,0,0,.07a.68.68,0,0,0,0,.1V2.94A7.88,7.88,0,0,0,5.4,5.32,8.13,8.13,0,0,0,3,10H1.45a.58.58,0,0,0-.31.09,1.23,1.23,0,1,0,.35,2.42H3A8,8,0,0,0,5.4,17.14a7.89,7.89,0,0,0,4.67,2.39v1.59a.64.64,0,0,0,0,.13,1.23,1.23,0,1,0,2.44,0,.68.68,0,0,0,0-.13V19.53a8,8,0,0,0,4.69-2.39,8,8,0,0,0,2.39-4.64h1.49a1.23,1.23,0,1,0,.36-2.42Zm-4.12,3.66A6.26,6.26,0,0,1,16,15.81h0a6.48,6.48,0,0,1-2.11,1.47,6.44,6.44,0,0,1-2.52.49,6.59,6.59,0,0,1-2.52-.48,6.79,6.79,0,0,1-3.54-3.54,6.59,6.59,0,0,1-.48-2.52,6.54,6.54,0,0,1,.48-2.51A6.36,6.36,0,0,1,6.7,6.63,6.48,6.48,0,0,1,8.81,5.21a6.66,6.66,0,0,1,2.52-.47,6.62,6.62,0,0,1,2.52.47,6.64,6.64,0,0,1,3.5,3.5,6.62,6.62,0,0,1,.47,2.52A6.65,6.65,0,0,1,17.36,13.74Z" style="fill:#333"/></svg>