<svg xmlns="http://www.w3.org/2000/svg" width="29.36" height="25.84" viewBox="0 0 29.36 25.84"><title>icon_menu_condutores</title><path d="M16.36,1.72h0Z" style="fill:#333"/><path d="M7.32,11.18l0,0,0,.07,0-.07Z" style="fill:#333"/><path d="M13.42.32h0Z" style="fill:#333"/><path d="M10.07,3.87a.58.58,0,0,1-.24.25.61.61,0,0,1-.34.1.61.61,0,0,0,.34-.1A.58.58,0,0,0,10.07,3.87Z" style="fill:#333"/><path d="M7.32,11.18a1,1,0,0,0,.13-.2A1,1,0,0,1,7.32,11.18Z" style="fill:#333"/><path d="M20.23.33h0Z" style="fill:#333"/><path d="M21.63,11.13l0,.06,0-.06-.07-.08Z" style="fill:#333"/><path d="M20.79,1.08a2,2,0,0,0,0-.22.58.58,0,0,0,0-.12.58.58,0,0,1,0,.12A2,2,0,0,1,20.79,1.08Z" style="fill:#333"/><path d="M5.94,13.7a6.66,6.66,0,0,1-.13-.89A6.65,6.65,0,0,0,5.94,13.7Z" style="fill:#333"/><path d="M21.72,14.14l-.11.36.11-.36,0-.12c0-.16.09-.33.13-.51,0,.18-.08.35-.13.51Z" style="fill:#333"/><path d="M16.32,22.53l.26-.09.51-.2-.51.2Z" style="fill:#333"/><path d="M22.6,15.18c.09-.26.16-.51.23-.71l0-.13,0,.13C22.77,14.67,22.7,14.92,22.6,15.18Z" style="fill:#333"/><path d="M12.12,22.35l.26.1.26.09-.26-.09Z" style="fill:#333"/><path d="M6.13,8.91q0,.44.11.92v0Q6.16,9.35,6.13,8.91Z" style="fill:#333"/><path d="M14.47,22.81h0Z" style="fill:#333"/><path d="M7.19,16.73l.17.2a8.56,8.56,0,0,0,.44,1.18,8.56,8.56,0,0,1-.44-1.18Z" style="fill:#333"/><path d="M13.42.32h0Z" style="fill:#333"/><path d="M20.21.32h0Z" style="fill:#333"/><path d="M10.07,3.87a.58.58,0,0,1-.24.25.6.6,0,0,1-.18.08.6.6,0,0,0,.18-.08A.58.58,0,0,0,10.07,3.87Z" style="fill:#333"/><path d="M22.77,10.57a12.22,12.22,0,0,0,.1-4,6.56,6.56,0,0,0-2.36-4.28A2.34,2.34,0,0,0,20.89.85a.69.69,0,0,0-.69-.64h-.08A38.17,38.17,0,0,1,16.3.45,10.47,10.47,0,0,1,14.22.29h0a4.1,4.1,0,0,0-.79-.08A5,5,0,0,0,9,3,3.51,3.51,0,0,0,7.12,4.16c-1,1.21-1.38,3.12-1,5.69V9.9c0,.2,0,.42.07.65A4.61,4.61,0,0,0,6,14.37H6l0,.12A6,6,0,0,0,7.26,17,9.08,9.08,0,0,0,9,20.14a7.77,7.77,0,0,0,3.39,2.41,6.42,6.42,0,0,0,2.12.37,6.51,6.51,0,0,0,2.15-.38A7.75,7.75,0,0,0,20,20.15,9.17,9.17,0,0,0,21.7,17a6,6,0,0,0,1.23-2.48l0-.13h0A4.62,4.62,0,0,0,22.77,10.57Zm-2-9.71a2,2,0,0,1,0,.22,2,2,0,0,0,0-.22.58.58,0,0,0,0-.12A.58.58,0,0,1,20.78.86Zm-15,11.95a6.63,6.63,0,0,0,.13.89A6.63,6.63,0,0,1,5.81,12.81ZM21.67,11.2l0-.06-.07-.08.07.08ZM20.21.32h0ZM16.36,1.72h0ZM13.42.32h0ZM9.65,4.21a.6.6,0,0,0,.18-.08.58.58,0,0,0,.24-.25.58.58,0,0,1-.24.25.6.6,0,0,1-.18.08l-.16,0Zm-2.37,7,0,0a1,1,0,0,0,.13-.2,1,1,0,0,1-.13.2l0,0,0,.07Zm-1-1.4q-.07-.47-.11-.92,0,.44.11.92v0Zm1.13,7.1-.17-.2.17.2a8.56,8.56,0,0,0,.44,1.18A8.56,8.56,0,0,1,7.36,16.93Zm5,5.52-.26-.1.26.1.26.09Zm1.83.36h0Zm2.37-.36-.26.09.26-.09.51-.2ZM21.76,14l0,.12-.11.36.11-.36,0-.12c0-.16.09-.33.13-.51C21.85,13.69,21.8,13.86,21.76,14Zm-.11,0,0,.12a4.59,4.59,0,0,1-1,2,.69.69,0,0,0-.2.33,7.2,7.2,0,0,1-4.26,4.81,5.13,5.13,0,0,1-1.69.3,5,5,0,0,1-1.66-.3,7.07,7.07,0,0,1-4.27-4.81.69.69,0,0,0-.2-.33,4.59,4.59,0,0,1-1-2l0-.12a3.38,3.38,0,0,1,0-2.69A1.09,1.09,0,0,0,7.55,11a.69.69,0,0,0,.06-.43c-.05-.28-.08-.56-.11-.84V9.65c-.32-2.13-.08-3.71.67-4.6A2,2,0,0,1,9.5,4.34h0a.72.72,0,0,0,.39-.12.69.69,0,0,0,.34-.44,3.52,3.52,0,0,1,3.2-2.19,2.67,2.67,0,0,1,.51,0,12,12,0,0,0,2.39.19c1.05,0,2.13-.07,2.92-.14a1.45,1.45,0,0,1-.16.17A.69.69,0,0,0,19.15,3c3,1.85,2.56,5.93,2.22,7.6a.69.69,0,0,0,.17.61l0,.06A3.32,3.32,0,0,1,21.65,14Zm1.18.48c-.06.2-.13.45-.23.71.09-.26.17-.51.23-.71l0-.13Z" style="fill:#333"/><polygon points="3.57 25.49 3.58 25.49 3.57 25.49 3.57 25.49" style="fill:#333"/><path d="M8.37,21.28h0Z" style="fill:#333"/><path d="M20.74,21.28h0Z" style="fill:#333"/><polygon points="25.63 25.49 25.63 25.49 25.62 25.49 25.63 25.49" style="fill:#333"/><path d="M26.42,24.51h0l-5.33-3.25h0a.69.69,0,0,0-.86.17,7.69,7.69,0,0,1-3.45,2.44,5.8,5.8,0,0,1-1,.26v0l-.13,0a6,6,0,0,1-2.15,0l-.13,0v0a5.79,5.79,0,0,1-1-.26A7.7,7.7,0,0,1,9,21.42a.69.69,0,0,0-.86-.17h0L2.79,24.51h0A.66.66,0,0,0,2.5,25a.69.69,0,0,0,.71.68.73.73,0,0,0,.4-.12h0l0,0a50.83,50.83,0,0,1,4.64-2.85A9,9,0,0,0,12,25.16a7.67,7.67,0,0,0,2.61.43h0a7.68,7.68,0,0,0,2.61-.44,9,9,0,0,0,3.69-2.44,50.83,50.83,0,0,1,4.64,2.85l0,0h0a.73.73,0,0,0,.4.12A.69.69,0,0,0,26.7,25,.66.66,0,0,0,26.42,24.51Zm-22.84,1h0Zm4.8-4.21h0Zm12.37,0h0Zm4.88,4.21h0Z" style="fill:#333"/></svg>