<svg xmlns="http://www.w3.org/2000/svg" width="21.78" height="21.79" viewBox="0 0 21.78 21.79"><title>icon_lists_status_nok</title><path d="M3.18,18.6a10.89,10.89,0,1,0,0-15.41A10.89,10.89,0,0,0,3.18,18.6Z" style="fill:#fff"/><path d="M3.18,18.6a10.89,10.89,0,1,0,0-15.41A10.89,10.89,0,0,0,3.18,18.6Z" style="fill:#fff"/><path d="M3.18,18.6a10.89,10.89,0,1,0,0-15.41A10.89,10.89,0,0,0,3.18,18.6Zm6.8-13a1.23,1.23,0,1,1,2.46,0v5.85a1.23,1.23,0,0,1-2.46,0Zm1.23,8.62A1.23,1.23,0,1,1,10,15.5,1.23,1.23,0,0,1,11.22,14.26Z" style="fill:#f34034"/></svg>