<svg xmlns="http://www.w3.org/2000/svg" width="23.89" height="23.89" viewBox="0 0 23.89 23.89"><title>icon_lists_pesquisar</title><path d="M23.53,21.79l-6.72-6.72a.79.79,0,0,1-.1-1l.11-.17A9.07,9.07,0,0,0,15.54,2.68,9,9,0,0,0,9.08,0,9.09,9.09,0,0,0,1.94,3.44,9.25,9.25,0,0,0,2,14.9,9.14,9.14,0,0,0,14,16.8l.15-.1a.78.78,0,0,1,1,.1l6.71,6.76a1.27,1.27,0,0,0,1.68,0,1.28,1.28,0,0,0,.4-.9A1.25,1.25,0,0,0,23.53,21.79Zm-9.87-8h0a6.67,6.67,0,1,1,2-4.72A6.63,6.63,0,0,1,13.67,13.84Z" style="fill:#333"/></svg>