<?xml version="1.0" encoding="utf-8"?>
<!-- Generator: Adobe Illustrator 21.0.2, SVG Export Plug-In . SVG Version: 6.00 Build 0)  -->
<svg version="1.1" id="Camada_1" xmlns="http://www.w3.org/2000/svg" xmlns:xlink="http://www.w3.org/1999/xlink" x="0px" y="0px"
	 viewBox="0 0 493 213" style="enable-background:new 0 0 493 213;" xml:space="preserve">
<style type="text/css">
	.st0{fill:#E2352A;}
	.st1{fill:#FFFFFF;}
	.st2{fill:#96989A;}
</style>
<g>
	<g>
		<polyline class="st0" points="432.6,77 367.5,166.4 314.3,166.4 379.1,77 		"/>
		<path class="st0" d="M318,77.1c-1.6,9.4-6.3,17.3-14,23.9c-7.7,6.6-16.3,9.9-25.6,9.9h-55.6l-2.1,12.1H310l-7.7,43.5H169.4
			l9.8-55.6c1.6-9.3,6.3-17.3,14-23.9c7.7-6.6,16.3-9.9,25.6-9.9"/>
		<path class="st0" d="M173,77.1l-9.7,55.6c-1.6,9.3-6.3,17.3-14.1,23.9c-7.8,6.6-16.4,9.9-25.7,9.9H58.2c-8.2,0-15-2.6-20.3-8
			c-5.3-5.3-8-11.9-8-19.8c0-2.1,0.1-4.1,0.5-6.1l9.5-55.6h43.7l-8,45.9h46l2.1-12.1h-19.4l5.8-33.8"/>
		<path class="st1" d="M42.3,64.9l1.7-9.7C45.6,46,50.3,38,58.1,31.4c7.8-6.6,16.4-9.9,25.7-9.9h210.2c8.2,0,15,2.6,20.3,8
			c5.3,5.3,8,12,8,20c0,2-0.1,3.9-0.5,5.8l-1.7,9.7"/>
		<path class="st1" d="M172.7,179.7h1.8v1.5h-1.8v9.5h-1.8v-9.5h-1.3v-1.5h1.3v-1.9c0-0.2,0-0.4,0.1-0.7c0.1-0.3,0.2-0.6,0.4-0.9
			c0.2-0.3,0.6-0.5,1.1-0.7c0.5-0.2,1.1-0.3,2-0.3c0.2,0,0.4,0,0.6,0c0.2,0,0.4,0,0.6,0l-0.4,1.5c-0.2,0-0.3,0-0.4,0
			c-0.1,0-0.2,0-0.4,0c-0.4,0-0.7,0-0.9,0.1c-0.2,0.1-0.4,0.2-0.5,0.3c-0.1,0.1-0.2,0.3-0.2,0.4c0,0.1-0.1,0.3-0.1,0.4v0.2"/>
		<path class="st1" d="M185.7,188v0.4c0,0.2,0,0.4-0.1,0.7c-0.1,0.3-0.2,0.6-0.4,0.8c-0.2,0.3-0.6,0.5-1.1,0.7
			c-0.5,0.2-1.1,0.3-2,0.3c-0.8,0-1.5-0.1-2-0.3c-0.5-0.2-0.8-0.4-1.1-0.7c-0.2-0.3-0.4-0.6-0.4-0.9c-0.1-0.3-0.1-0.5-0.1-0.7v-8.6
			h1.8v8.1h0v0.2c0,0.1,0,0.2,0.1,0.4c0,0.2,0.1,0.3,0.2,0.4c0.1,0.1,0.3,0.2,0.5,0.3c0.2,0.1,0.5,0.1,0.9,0.1c0.4,0,0.7,0,1-0.1
			c0.2-0.1,0.4-0.2,0.5-0.3c0.1-0.1,0.2-0.3,0.3-0.4c0-0.1,0.1-0.3,0.1-0.4v-0.2h0v-8.1h1.8"/>
		<path class="st1" d="M195,182.7v-0.2c0-0.1,0-0.3-0.1-0.4c0-0.1-0.1-0.3-0.2-0.4c-0.1-0.1-0.3-0.2-0.5-0.3
			c-0.2-0.1-0.5-0.1-0.9-0.1c-0.4,0-0.7,0-1,0.1c-0.2,0.1-0.4,0.2-0.6,0.3c-0.1,0.1-0.2,0.3-0.3,0.4c0,0.1-0.1,0.3-0.1,0.4v2.2
			c0-0.1,0.1-0.2,0.2-0.3c0.1-0.1,0.2-0.1,0.3-0.2c0.1,0,0.3-0.1,0.4-0.1c0.1,0,0.2,0,0.3,0h1.2c0.3,0,0.6-0.1,0.8-0.3
			c0.2-0.2,0.4-0.5,0.4-0.8V182.7 M193.2,179.6c0.8,0,1.5,0.1,2,0.3c0.5,0.2,0.8,0.4,1.1,0.7c0.2,0.3,0.4,0.6,0.4,0.9
			c0.1,0.3,0.1,0.5,0.1,0.7v1c0,0.2,0,0.5-0.1,0.8c-0.1,0.3-0.3,0.6-0.6,0.9c-0.2,0.2-0.3,0.3-0.5,0.4c-0.2,0.1-0.4,0.1-0.5,0.2
			c-0.2,0.1-0.4,0.1-0.6,0.1h-1.6c-0.4,0-0.7,0.1-1,0.4c-0.3,0.3-0.4,0.6-0.4,1v0.9c0,0.3,0.1,0.6,0.2,0.8c0.1,0.1,0.1,0.2,0.2,0.3
			c0.1,0.1,0.2,0.1,0.3,0.2c0.1,0.1,0.3,0.1,0.4,0.1c0.2,0,0.4,0.1,0.7,0.1c0.4,0,0.7,0,0.9-0.1c0.2-0.1,0.4-0.1,0.4-0.2
			c0.2-0.1,0.3-0.3,0.4-0.5c0.1-0.2,0.1-0.4,0.1-0.6h1.8v0.5c0,0.4-0.1,0.7-0.2,1.1c-0.2,0.3-0.4,0.6-0.7,0.8
			c-0.2,0.2-0.6,0.3-1,0.4c-0.4,0.1-1,0.2-1.6,0.2c-0.5,0-0.9,0-1.2-0.1c-0.4-0.1-0.7-0.2-0.9-0.3c-0.3-0.1-0.5-0.3-0.6-0.4
			c-0.2-0.2-0.3-0.3-0.4-0.5c-0.3-0.4-0.4-0.8-0.4-1.3v-6.2c0-0.2,0-0.4,0.1-0.7c0.1-0.3,0.2-0.6,0.4-0.8c0.2-0.3,0.6-0.5,1.1-0.7
			C191.7,179.7,192.4,179.6,193.2,179.6z"/>
		<rect x="200.9" y="175.5" class="st1" width="1.8" height="15.3"/>
		<path class="st1" d="M248.4,182.5c0-0.2-0.1-0.4-0.1-0.5c-0.1-0.2-0.2-0.3-0.3-0.4c-0.1-0.1-0.3-0.2-0.5-0.3
			c-0.2-0.1-0.5-0.1-0.9-0.1c-0.4,0-0.6,0-0.9,0.1c-0.2,0.1-0.4,0.2-0.5,0.3c-0.1,0.1-0.2,0.3-0.3,0.4c-0.1,0.1-0.1,0.3-0.1,0.5v7.2
			c0-0.2,0.1-0.3,0.2-0.3c0.1-0.1,0.2-0.1,0.3-0.1c0.2-0.1,0.5-0.2,0.7-0.2c0.2-0.1,0.5-0.2,0.7-0.2c0.3-0.1,0.5-0.2,0.7-0.3
			c0.2-0.1,0.4-0.2,0.5-0.3c0.1-0.1,0.2-0.3,0.3-0.4c0.1-0.2,0.1-0.4,0.1-0.7v-0.1 M250.2,186.9v0.5c0,0.5-0.1,1-0.4,1.5
			c-0.3,0.4-0.7,0.7-1.2,0.9c-0.3,0.1-0.5,0.2-0.9,0.3c-0.3,0.1-0.6,0.2-0.9,0.3c-0.3,0.1-0.6,0.2-0.8,0.3c-0.2,0.1-0.4,0.1-0.4,0.1
			c-0.1,0-0.1,0.1-0.2,0.1c-0.1,0-0.2,0.1-0.3,0.2c-0.1,0.1-0.2,0.2-0.2,0.3c-0.1,0.1-0.1,0.3-0.1,0.4v3.1H243v-12.9
			c0-0.7,0.3-1.3,0.9-1.8c0.6-0.5,1.5-0.7,2.7-0.7c0.6,0,1.2,0.1,1.6,0.2c0.4,0.1,0.8,0.3,1.1,0.5c0.3,0.2,0.5,0.5,0.6,0.8
			c0.1,0.3,0.2,0.6,0.2,1v0.5V186.9z"/>
		<path class="st1" d="M257.7,179.6c0.2,0,0.4,0,0.6,0c0.2,0,0.4,0,0.6,0l-0.4,1.5c-0.2,0-0.3,0-0.4,0c-0.1,0-0.2,0-0.4,0
			c-0.4,0-0.7,0-0.9,0.1c-0.2,0.1-0.4,0.2-0.5,0.3c-0.1,0.1-0.2,0.3-0.2,0.4c0,0.1-0.1,0.3-0.1,0.4v8.2h-1.8v-8.6
			c0-0.2,0-0.4,0.1-0.7c0.1-0.3,0.2-0.6,0.4-0.9c0.2-0.3,0.6-0.5,1.1-0.7C256.2,179.7,256.8,179.6,257.7,179.6"/>
		<path class="st1" d="M267.3,187.8v-5.4c0-0.1,0-0.3-0.1-0.4c0-0.1-0.1-0.3-0.3-0.4c-0.1-0.1-0.3-0.2-0.6-0.3
			c-0.2-0.1-0.6-0.1-1-0.1c-0.4,0-0.7,0-0.9,0.1c-0.2,0.1-0.4,0.2-0.5,0.3c-0.1,0.1-0.2,0.3-0.2,0.4c0,0.2-0.1,0.3-0.1,0.4v5.6
			c0,0.1,0,0.2,0.1,0.4c0,0.2,0.1,0.3,0.2,0.4c0.1,0.1,0.3,0.2,0.5,0.3c0.2,0.1,0.5,0.1,0.9,0.1c0.4,0,0.7,0,1-0.1
			c0.2-0.1,0.4-0.2,0.6-0.3c0.1-0.1,0.2-0.3,0.3-0.4c0-0.1,0.1-0.3,0.1-0.4 M269.1,188v0.3c0,0.2,0,0.4-0.1,0.7
			c-0.1,0.3-0.2,0.6-0.4,0.8c-0.2,0.3-0.6,0.5-1.1,0.7c-0.5,0.2-1.1,0.3-2,0.3c-0.8,0-1.5-0.1-2-0.3c-0.5-0.2-0.8-0.4-1.1-0.7
			c-0.2-0.3-0.4-0.6-0.4-0.9c-0.1-0.3-0.1-0.5-0.1-0.7v-6.2c0-0.2,0-0.4,0.1-0.7c0.1-0.3,0.2-0.6,0.4-0.9c0.2-0.3,0.6-0.5,1.1-0.7
			c0.5-0.2,1.1-0.3,2-0.3c0.8,0,1.5,0.1,2,0.3c0.5,0.2,0.8,0.4,1.1,0.7c0.2,0.3,0.4,0.6,0.4,0.8c0.1,0.3,0.1,0.5,0.1,0.7V188z"/>
		<path class="st1" d="M276.2,179.7h1.8v1.5h-1.8v9.5h-1.8v-9.5H273v-1.5h1.3v-1.9c0-0.2,0-0.4,0.1-0.7c0.1-0.3,0.2-0.6,0.4-0.9
			c0.2-0.3,0.6-0.5,1.1-0.7c0.5-0.2,1.1-0.3,2-0.3c0.2,0,0.4,0,0.6,0c0.2,0,0.4,0,0.6,0l-0.4,1.5c-0.2,0-0.3,0-0.4,0
			c-0.1,0-0.2,0-0.4,0c-0.4,0-0.7,0-0.9,0.1c-0.2,0.1-0.4,0.2-0.5,0.3c-0.1,0.1-0.2,0.3-0.2,0.4c0,0.1-0.1,0.3-0.1,0.4v0.2"/>
		<path class="st1" d="M287.5,182.7v-0.2c0-0.1,0-0.3-0.1-0.4c0-0.1-0.1-0.3-0.2-0.4c-0.1-0.1-0.3-0.2-0.5-0.3
			c-0.2-0.1-0.5-0.1-0.9-0.1c-0.4,0-0.7,0-1,0.1c-0.2,0.1-0.4,0.2-0.6,0.3c-0.1,0.1-0.2,0.3-0.3,0.4c0,0.1-0.1,0.3-0.1,0.4v2.2
			c0-0.1,0.1-0.2,0.2-0.3s0.2-0.1,0.3-0.2c0.1,0,0.3-0.1,0.4-0.1c0.1,0,0.2,0,0.3,0h1.2c0.3,0,0.6-0.1,0.8-0.3
			c0.2-0.2,0.4-0.5,0.4-0.8V182.7 M285.7,179.6c0.8,0,1.5,0.1,2,0.3c0.5,0.2,0.8,0.4,1.1,0.7c0.2,0.3,0.4,0.6,0.4,0.9
			c0.1,0.3,0.1,0.5,0.1,0.7v1c0,0.2,0,0.5-0.1,0.8c-0.1,0.3-0.3,0.6-0.6,0.9c-0.2,0.2-0.3,0.3-0.5,0.4c-0.2,0.1-0.4,0.1-0.5,0.2
			c-0.2,0.1-0.4,0.1-0.6,0.1h-1.6c-0.4,0-0.7,0.1-1,0.4c-0.3,0.3-0.4,0.6-0.4,1v0.9c0,0.3,0.1,0.6,0.2,0.8c0.1,0.1,0.1,0.2,0.2,0.3
			c0.1,0.1,0.2,0.1,0.3,0.2c0.1,0.1,0.3,0.1,0.4,0.1c0.2,0,0.4,0.1,0.7,0.1c0.4,0,0.7,0,0.9-0.1c0.2-0.1,0.4-0.1,0.4-0.2
			c0.2-0.1,0.3-0.3,0.4-0.5c0.1-0.2,0.1-0.4,0.1-0.6h1.8v0.5c0,0.4-0.1,0.7-0.2,1.1c-0.2,0.3-0.4,0.6-0.7,0.8
			c-0.2,0.2-0.6,0.3-1,0.4c-0.4,0.1-1,0.2-1.6,0.2c-0.5,0-0.9,0-1.2-0.1c-0.4-0.1-0.7-0.2-0.9-0.3c-0.3-0.1-0.5-0.3-0.6-0.4
			c-0.2-0.2-0.3-0.3-0.4-0.5c-0.3-0.4-0.4-0.8-0.4-1.3v-6.2c0-0.2,0-0.4,0.1-0.7c0.1-0.3,0.2-0.6,0.4-0.8c0.2-0.3,0.6-0.5,1.1-0.7
			C284.2,179.7,284.8,179.6,285.7,179.6z"/>
		<path class="st1" d="M298.2,182.6c0-0.4-0.1-0.8-0.4-1c-0.2-0.3-0.7-0.4-1.4-0.4c-0.4,0-0.6,0-0.9,0.1c-0.2,0.1-0.4,0.2-0.6,0.3
			c-0.1,0.1-0.2,0.3-0.3,0.4c-0.1,0.1-0.1,0.3-0.1,0.4v0.4c0,0.2,0,0.3,0.1,0.4c0.1,0.1,0.1,0.2,0.2,0.3c0.1,0.1,0.2,0.2,0.3,0.2
			c0.1,0,0.2,0.1,0.2,0.1c0.1,0,0.2,0.1,0.4,0.1c0.2,0.1,0.5,0.2,0.8,0.3c0.3,0.1,0.6,0.2,0.9,0.3c0.3,0.1,0.6,0.2,0.9,0.3
			c0.5,0.2,0.9,0.5,1.2,0.9c0.3,0.4,0.4,0.9,0.4,1.5v1c0,0.3,0,0.5-0.1,0.8c-0.1,0.3-0.3,0.6-0.5,0.8c-0.3,0.3-0.6,0.5-1.1,0.6
			c-0.5,0.2-1.1,0.3-1.8,0.3c-0.7,0-1.3-0.1-1.8-0.3c-0.5-0.2-0.8-0.4-1.1-0.6c-0.3-0.3-0.4-0.5-0.5-0.8c-0.1-0.3-0.1-0.6-0.1-0.8
			v-0.6h1.8c0,0.5,0.1,0.9,0.4,1.2c0.3,0.3,0.7,0.4,1.4,0.4c0.7,0,1.2-0.1,1.4-0.4c0.3-0.3,0.4-0.7,0.4-1.2c0-0.3,0-0.5-0.1-0.7
			c-0.1-0.2-0.2-0.3-0.3-0.4c-0.2-0.1-0.3-0.2-0.5-0.3c-0.4-0.2-0.8-0.3-1.2-0.4c-0.3-0.1-0.6-0.2-0.9-0.3c-0.3-0.1-0.5-0.2-0.7-0.2
			c-0.1-0.1-0.3-0.1-0.5-0.3c-0.2-0.1-0.4-0.3-0.5-0.4c-0.2-0.2-0.3-0.4-0.4-0.7c-0.1-0.3-0.2-0.6-0.2-0.9v-1c0-0.7,0.3-1.3,0.9-1.8
			c0.6-0.5,1.5-0.7,2.7-0.7c0.6,0,1.2,0.1,1.6,0.2c0.4,0.1,0.8,0.3,1.1,0.5c0.3,0.2,0.5,0.5,0.6,0.8c0.1,0.3,0.2,0.6,0.2,1v0.5"/>
		<path class="st1" d="M309.2,182.6c0-0.4-0.1-0.8-0.4-1c-0.2-0.3-0.7-0.4-1.4-0.4c-0.4,0-0.6,0-0.9,0.1c-0.2,0.1-0.4,0.2-0.6,0.3
			c-0.1,0.1-0.2,0.3-0.3,0.4c-0.1,0.1-0.1,0.3-0.1,0.4v0.4c0,0.2,0,0.3,0.1,0.4c0.1,0.1,0.1,0.2,0.2,0.3c0.1,0.1,0.2,0.2,0.3,0.2
			c0.1,0,0.2,0.1,0.2,0.1c0.1,0,0.2,0.1,0.4,0.1c0.2,0.1,0.5,0.2,0.8,0.3c0.3,0.1,0.6,0.2,0.9,0.3c0.3,0.1,0.6,0.2,0.9,0.3
			c0.5,0.2,0.9,0.5,1.2,0.9c0.3,0.4,0.4,0.9,0.4,1.5v1c0,0.3,0,0.5-0.1,0.8c-0.1,0.3-0.3,0.6-0.5,0.8c-0.3,0.3-0.6,0.5-1.1,0.6
			c-0.5,0.2-1.1,0.3-1.8,0.3c-0.7,0-1.3-0.1-1.8-0.3c-0.5-0.2-0.8-0.4-1.1-0.6c-0.3-0.3-0.4-0.5-0.5-0.8c-0.1-0.3-0.1-0.6-0.1-0.8
			v-0.6h1.8c0,0.5,0.1,0.9,0.4,1.2c0.3,0.3,0.7,0.4,1.4,0.4c0.7,0,1.2-0.1,1.4-0.4c0.3-0.3,0.4-0.7,0.4-1.2c0-0.3,0-0.5-0.1-0.7
			c-0.1-0.2-0.2-0.3-0.3-0.4c-0.2-0.1-0.3-0.2-0.5-0.3c-0.4-0.2-0.8-0.3-1.2-0.4c-0.3-0.1-0.6-0.2-0.9-0.3c-0.3-0.1-0.5-0.2-0.7-0.2
			c-0.1-0.1-0.3-0.1-0.5-0.3c-0.2-0.1-0.4-0.3-0.5-0.4c-0.2-0.2-0.3-0.4-0.4-0.7c-0.1-0.3-0.2-0.6-0.2-0.9v-1c0-0.7,0.3-1.3,0.9-1.8
			c0.6-0.5,1.5-0.7,2.7-0.7c0.6,0,1.2,0.1,1.6,0.2c0.4,0.1,0.8,0.3,1.1,0.5c0.3,0.2,0.5,0.5,0.6,0.8c0.1,0.3,0.2,0.6,0.2,1v0.5"/>
		<path class="st1" d="M315.2,175.5h1.8v2.1h-1.8 M315.2,190.8v-11h1.8v11H315.2z"/>
		<path class="st1" d="M326.3,187.8v-5.4c0-0.1,0-0.3-0.1-0.4c0-0.1-0.1-0.3-0.3-0.4c-0.1-0.1-0.3-0.2-0.6-0.3
			c-0.2-0.1-0.6-0.1-1-0.1c-0.4,0-0.7,0-0.9,0.1c-0.2,0.1-0.4,0.2-0.5,0.3c-0.1,0.1-0.2,0.3-0.2,0.4c0,0.2-0.1,0.3-0.1,0.4v5.6
			c0,0.1,0,0.2,0.1,0.4c0,0.2,0.1,0.3,0.2,0.4c0.1,0.1,0.3,0.2,0.5,0.3c0.2,0.1,0.5,0.1,0.9,0.1c0.4,0,0.7,0,1-0.1
			c0.2-0.1,0.4-0.2,0.6-0.3c0.1-0.1,0.2-0.3,0.3-0.4c0-0.1,0.1-0.3,0.1-0.4 M328.1,188v0.3c0,0.2,0,0.4-0.1,0.7
			c-0.1,0.3-0.2,0.6-0.4,0.8c-0.2,0.3-0.6,0.5-1.1,0.7c-0.5,0.2-1.1,0.3-2,0.3c-0.8,0-1.5-0.1-2-0.3c-0.5-0.2-0.8-0.4-1.1-0.7
			c-0.2-0.3-0.4-0.6-0.4-0.9c-0.1-0.3-0.1-0.5-0.1-0.7v-6.2c0-0.2,0-0.4,0.1-0.7c0.1-0.3,0.2-0.6,0.4-0.9c0.2-0.3,0.6-0.5,1.1-0.7
			c0.5-0.2,1.1-0.3,2-0.3c0.8,0,1.5,0.1,2,0.3c0.5,0.2,0.8,0.4,1.1,0.7c0.2,0.3,0.4,0.6,0.4,0.8c0.1,0.3,0.1,0.5,0.1,0.7V188z"/>
		<path class="st1" d="M339.2,190.8h-1.8v-8.3c0-0.1,0-0.3-0.1-0.4c0-0.1-0.1-0.3-0.2-0.4c-0.1-0.1-0.3-0.2-0.5-0.3
			c-0.2-0.1-0.5-0.1-0.9-0.1c-0.4,0-0.7,0-1,0.1c-0.2,0.1-0.4,0.2-0.6,0.3c-0.1,0.1-0.2,0.3-0.3,0.4c0,0.1-0.1,0.3-0.1,0.4v8.3H332
			v-8.6c0-0.2,0-0.4,0.1-0.7c0.1-0.3,0.2-0.6,0.5-0.8c0.2-0.3,0.6-0.5,1.1-0.7c0.5-0.2,1.1-0.3,2-0.3c0.8,0,1.5,0.1,2,0.3
			c0.5,0.2,0.8,0.4,1.1,0.7c0.2,0.3,0.4,0.6,0.4,0.9c0.1,0.3,0.1,0.5,0.1,0.7v0.2"/>
		<path class="st1" d="M348.5,185.2c0,0.1-0.1,0.2-0.2,0.3c-0.1,0.1-0.2,0.1-0.3,0.1c-0.2,0.1-0.4,0.2-0.7,0.2
			c-0.2,0.1-0.5,0.2-0.7,0.2c-0.3,0.1-0.5,0.2-0.7,0.3c-0.2,0.1-0.3,0.2-0.5,0.3c-0.1,0.1-0.2,0.3-0.3,0.4c-0.1,0.2-0.2,0.4-0.2,0.7
			c0,0.5,0.1,0.9,0.4,1.2c0.3,0.3,0.7,0.4,1.4,0.4c0.7,0,1.2-0.1,1.4-0.4c0.3-0.3,0.4-0.7,0.4-1.2 M346.7,179.6
			c1.2,0,2.1,0.2,2.7,0.7c0.6,0.5,0.9,1.1,0.9,1.8v6.2c0,0.3,0,0.5-0.1,0.8c-0.1,0.3-0.3,0.6-0.5,0.8c-0.3,0.3-0.6,0.5-1.1,0.6
			c-0.5,0.2-1.1,0.3-1.8,0.3c-0.7,0-1.3-0.1-1.8-0.3c-0.5-0.2-0.8-0.4-1.1-0.6c-0.3-0.3-0.4-0.5-0.5-0.8c-0.1-0.3-0.1-0.6-0.1-0.8
			v-1c0-0.5,0.1-1,0.4-1.5c0.3-0.4,0.7-0.7,1.2-0.9c0.3-0.1,0.5-0.2,0.9-0.3c0.3-0.1,0.6-0.2,0.9-0.3c0.3-0.1,0.6-0.2,0.8-0.3
			c0.2-0.1,0.4-0.1,0.4-0.1c0.1,0,0.1-0.1,0.2-0.1c0.1,0,0.2-0.1,0.3-0.2c0.1-0.1,0.2-0.2,0.2-0.3c0.1-0.1,0.1-0.3,0.1-0.4v-0.4
			c0-0.1,0-0.3-0.1-0.4c-0.1-0.1-0.2-0.3-0.3-0.4c-0.1-0.1-0.3-0.2-0.6-0.3c-0.2-0.1-0.5-0.1-0.9-0.1c-0.7,0-1.2,0.1-1.4,0.4
			c-0.2,0.3-0.4,0.6-0.4,1h-1.8v-0.5c0-0.4,0.1-0.7,0.2-1c0.1-0.3,0.3-0.6,0.6-0.8c0.3-0.2,0.7-0.4,1.1-0.5
			C345.5,179.6,346,179.6,346.7,179.6z"/>
		<rect x="354.7" y="175.5" class="st1" width="1.8" height="15.3"/>
		<path class="st1" d="M365.8,182.6c0-0.4-0.1-0.8-0.4-1c-0.2-0.3-0.7-0.4-1.4-0.4c-0.4,0-0.6,0-0.9,0.1s-0.4,0.2-0.6,0.3
			c-0.1,0.1-0.2,0.3-0.3,0.4c-0.1,0.1-0.1,0.3-0.1,0.4v0.4c0,0.2,0,0.3,0.1,0.4c0.1,0.1,0.1,0.2,0.2,0.3c0.1,0.1,0.2,0.2,0.3,0.2
			c0.1,0,0.2,0.1,0.2,0.1c0.1,0,0.2,0.1,0.4,0.1c0.2,0.1,0.5,0.2,0.8,0.3c0.3,0.1,0.6,0.2,0.9,0.3c0.3,0.1,0.6,0.2,0.9,0.3
			c0.5,0.2,0.9,0.5,1.2,0.9c0.3,0.4,0.4,0.9,0.4,1.5v1c0,0.3,0,0.5-0.1,0.8c-0.1,0.3-0.3,0.6-0.5,0.8c-0.3,0.3-0.6,0.5-1.1,0.6
			c-0.5,0.2-1.1,0.3-1.8,0.3c-0.7,0-1.3-0.1-1.8-0.3c-0.5-0.2-0.8-0.4-1.1-0.6c-0.3-0.3-0.4-0.5-0.5-0.8c-0.1-0.3-0.1-0.6-0.1-0.8
			v-0.6h1.8c0,0.5,0.1,0.9,0.4,1.2c0.3,0.3,0.7,0.4,1.4,0.4c0.7,0,1.2-0.1,1.4-0.4c0.3-0.3,0.4-0.7,0.4-1.2c0-0.3-0.1-0.5-0.1-0.7
			c-0.1-0.2-0.2-0.3-0.3-0.4c-0.2-0.1-0.3-0.2-0.5-0.3c-0.4-0.2-0.8-0.3-1.2-0.4c-0.3-0.1-0.6-0.2-0.9-0.3c-0.3-0.1-0.5-0.2-0.7-0.2
			c-0.1-0.1-0.3-0.1-0.5-0.3c-0.2-0.1-0.4-0.3-0.5-0.4c-0.2-0.2-0.3-0.4-0.4-0.7c-0.1-0.3-0.2-0.6-0.2-0.9v-1c0-0.7,0.3-1.3,0.9-1.8
			c0.6-0.5,1.5-0.7,2.7-0.7c0.6,0,1.2,0.1,1.6,0.2c0.4,0.1,0.8,0.3,1.1,0.5c0.3,0.2,0.5,0.5,0.6,0.8c0.1,0.3,0.2,0.6,0.2,1v0.5"/>
		<path class="st2" d="M213.9,179.7h1.8v1.5h-1.8v9.5h-1.8v-9.5h-1.3v-1.5h1.3v-1.9c0-0.2,0-0.4,0.1-0.7c0.1-0.3,0.2-0.6,0.4-0.9
			c0.2-0.3,0.6-0.5,1.1-0.7c0.5-0.2,1.1-0.3,2-0.3c0.2,0,0.4,0,0.6,0c0.2,0,0.4,0,0.6,0l-0.4,1.5c-0.2,0-0.3,0-0.4,0
			c-0.1,0-0.2,0-0.4,0c-0.4,0-0.7,0-0.9,0.1c-0.2,0.1-0.4,0.2-0.5,0.3c-0.1,0.1-0.2,0.3-0.2,0.4c0,0.1-0.1,0.3-0.1,0.4v0.2"/>
		<path class="st2" d="M225.2,187.8v-5.4c0-0.1,0-0.3-0.1-0.4c0-0.1-0.1-0.3-0.3-0.4c-0.1-0.1-0.3-0.2-0.6-0.3
			c-0.2-0.1-0.6-0.1-1-0.1c-0.4,0-0.7,0-0.9,0.1c-0.2,0.1-0.4,0.2-0.5,0.3c-0.1,0.1-0.2,0.3-0.2,0.4c0,0.2-0.1,0.3-0.1,0.4v5.6
			c0,0.1,0,0.2,0.1,0.4c0,0.2,0.1,0.3,0.2,0.4c0.1,0.1,0.3,0.2,0.5,0.3c0.2,0.1,0.5,0.1,0.9,0.1c0.4,0,0.7,0,1-0.1
			c0.2-0.1,0.4-0.2,0.6-0.3c0.1-0.1,0.2-0.3,0.3-0.4c0-0.1,0.1-0.3,0.1-0.4 M227,188v0.3c0,0.2,0,0.4-0.1,0.7
			c-0.1,0.3-0.2,0.6-0.4,0.8c-0.2,0.3-0.6,0.5-1.1,0.7c-0.5,0.2-1.1,0.3-2,0.3c-0.8,0-1.5-0.1-2-0.3c-0.5-0.2-0.8-0.4-1.1-0.7
			c-0.2-0.3-0.4-0.6-0.4-0.9c-0.1-0.3-0.1-0.5-0.1-0.7v-6.2c0-0.2,0-0.4,0.1-0.7c0.1-0.3,0.2-0.6,0.4-0.9c0.2-0.3,0.6-0.5,1.1-0.7
			c0.5-0.2,1.1-0.3,2-0.3c0.8,0,1.5,0.1,2,0.3c0.5,0.2,0.8,0.4,1.1,0.7c0.2,0.3,0.4,0.6,0.4,0.8c0.1,0.3,0.1,0.5,0.1,0.7V188z"/>
		<path class="st2" d="M234.5,179.6c0.2,0,0.4,0,0.6,0c0.2,0,0.4,0,0.6,0l-0.4,1.5c-0.2,0-0.3,0-0.4,0c-0.1,0-0.2,0-0.4,0
			c-0.4,0-0.7,0-0.9,0.1c-0.2,0.1-0.4,0.2-0.5,0.3c-0.1,0.1-0.2,0.3-0.2,0.4c0,0.1-0.1,0.3-0.1,0.4v8.2h-1.8v-8.6
			c0-0.2,0-0.4,0.1-0.7c0.1-0.3,0.2-0.6,0.4-0.9c0.2-0.3,0.6-0.5,1.1-0.7C233,179.7,233.6,179.6,234.5,179.6"/>
		<polyline class="st1" points="472.8,21.5 441.3,64.9 332.2,64.9 340,21.5 		"/>
	</g>
</g>
</svg>
