<?xml version="1.0" encoding="UTF-8" standalone="no"?>
<svg
   xmlns:dc="http://purl.org/dc/elements/1.1/"
   xmlns:cc="http://creativecommons.org/ns#"
   xmlns:rdf="http://www.w3.org/1999/02/22-rdf-syntax-ns#"
   xmlns:svg="http://www.w3.org/2000/svg"
   xmlns="http://www.w3.org/2000/svg"
   xmlns:sodipodi="http://sodipodi.sourceforge.net/DTD/sodipodi-0.dtd"
   xmlns:inkscape="http://www.inkscape.org/namespaces/inkscape"
   id="svg"
   width="400"
   height="181.61925601750548"
   viewBox="0, 0, 400,181.61925601750548"
   version="1.1"
   sodipodi:docname="logo.svg"
   inkscape:version="0.92.3 (2405546, 2018-03-11)">
  <metadata
     id="metadata13">
    <rdf:RDF>
      <cc:Work
         rdf:about="">
        <dc:format>image/svg+xml</dc:format>
        <dc:type
           rdf:resource="http://purl.org/dc/dcmitype/StillImage" />
        <dc:title></dc:title>
      </cc:Work>
    </rdf:RDF>
  </metadata>
  <defs
     id="defs11" />
  <sodipodi:namedview
     pagecolor="#ffffff"
     bordercolor="#666666"
     borderopacity="1"
     objecttolerance="10"
     gridtolerance="10"
     guidetolerance="10"
     inkscape:pageopacity="0"
     inkscape:pageshadow="2"
     inkscape:window-width="1920"
     inkscape:window-height="1017"
     id="namedview9"
     showgrid="false"
     inkscape:zoom="2.4607316"
     inkscape:cx="170.72451"
     inkscape:cy="131.42782"
     inkscape:window-x="-8"
     inkscape:window-y="-8"
     inkscape:window-maximized="1"
     inkscape:current-layer="svg" />
  <g
     id="svgg">
    <path
       id="path0"
       d="M33.720 24.211 C 33.491 24.439,33.229 24.747,33.137 24.894 C 32.763 25.492,31.594 26.185,31.012 26.153 C 29.955 26.096,29.655 26.154,29.227 26.501 C 28.869 26.790,28.840 26.887,29.041 27.129 C 29.244 27.374,29.215 27.431,28.836 27.526 C 28.331 27.652,27.073 29.203,27.054 29.720 C 27.043 30.021,27.017 30.013,26.845 29.655 C 26.375 28.682,24.370 29.202,24.093 30.369 C 23.972 30.880,23.855 31.015,22.809 31.854 C 22.453 32.139,22.162 32.527,22.162 32.716 C 22.162 32.932,22.034 33.061,21.821 33.061 C 21.435 33.061,20.345 34.248,20.345 34.669 C 20.345 34.890,20.295 34.879,20.100 34.612 C 19.922 34.368,19.819 34.337,19.719 34.498 C 19.645 34.619,19.387 34.793,19.147 34.884 C 18.736 35.040,18.710 35.136,18.710 36.508 C 18.710 37.642,18.653 37.965,18.454 37.965 C 18.143 37.965,17.257 38.982,17.257 39.338 C 17.257 39.479,17.052 39.645,16.801 39.708 C 16.308 39.832,15.622 40.657,15.622 41.127 C 15.622 41.335,15.450 41.417,15.015 41.417 C 14.091 41.417,13.806 41.860,13.806 43.293 C 13.806 44.372,13.767 44.505,13.452 44.505 C 13.258 44.505,12.870 44.703,12.590 44.945 L 12.080 45.384 12.130 47.896 C 12.158 49.319,12.257 50.435,12.357 50.469 C 12.795 50.619,12.473 51.008,11.823 51.112 C 10.519 51.320,9.991 52.330,9.991 54.614 C 9.991 56.354,10.207 57.402,10.565 57.402 C 10.878 57.402,10.704 57.927,10.354 58.038 C 10.154 58.102,9.991 58.235,9.991 58.335 C 9.991 58.435,9.827 58.465,9.627 58.401 C 9.385 58.324,9.226 58.381,9.153 58.571 C 9.093 58.727,8.928 58.856,8.786 58.856 C 8.352 58.856,8.174 59.699,8.174 61.762 C 8.174 63.789,8.352 64.668,8.762 64.668 C 8.890 64.668,9.097 64.832,9.222 65.032 C 9.449 65.395,9.646 65.395,136.704 65.395 L 263.959 65.395 264.405 64.914 C 264.986 64.287,265.119 62.194,264.636 61.260 C 264.399 60.802,264.827 60.228,265.504 60.098 C 265.838 60.034,265.851 59.694,265.896 49.930 L 265.943 39.829 265.185 39.708 C 264.610 39.616,264.479 39.536,264.639 39.376 C 265.524 38.491,264.237 35.969,263.119 36.398 C 262.873 36.493,262.713 34.892,262.838 33.585 C 262.858 33.375,262.657 33.258,262.133 33.174 C 261.654 33.097,261.399 32.962,261.399 32.785 C 261.399 32.395,260.487 31.426,260.120 31.426 C 259.738 31.426,257.947 29.488,257.947 29.074 C 257.947 28.719,257.604 28.338,257.285 28.338 C 257.160 28.338,256.837 28.134,256.568 27.884 C 256.298 27.634,255.967 27.430,255.832 27.430 C 255.697 27.430,255.586 27.345,255.586 27.242 C 255.586 27.139,255.341 26.814,255.041 26.521 C 254.741 26.228,254.496 25.909,254.496 25.812 C 254.496 25.262,253.117 24.345,252.286 24.343 C 251.770 24.342,251.408 24.253,251.362 24.114 C 251.302 23.933,229.377 23.878,142.711 23.842 L 34.135 23.796 33.720 24.211 M277.150 23.923 C 276.852 24.001,276.827 24.287,276.847 27.480 C 276.868 30.692,276.844 30.962,276.536 31.077 C 276.063 31.254,275.638 31.792,275.472 32.425 C 275.237 33.324,275.165 38.318,275.379 38.931 C 275.606 39.583,275.420 39.775,274.557 39.779 C 273.680 39.784,273.388 40.601,273.388 43.047 C 273.388 44.172,273.466 45.077,273.569 45.141 C 273.933 45.366,273.737 45.943,273.161 46.345 C 272.204 47.013,272.212 46.953,272.116 53.678 L 272.025 60.036 271.524 60.036 C 270.625 60.036,270.302 60.815,270.301 62.984 L 270.300 64.841 270.836 65.118 C 271.746 65.589,373.812 65.534,374.394 65.062 C 374.759 64.767,374.804 64.574,374.791 63.337 C 374.780 62.302,374.838 61.944,375.014 61.944 C 375.312 61.944,376.203 60.795,376.203 60.412 C 376.203 60.211,376.380 60.127,376.803 60.127 C 377.536 60.127,377.838 59.851,377.838 59.183 C 377.838 58.767,377.918 58.674,378.272 58.674 C 379.184 58.674,379.564 58.104,379.564 56.737 C 379.564 55.560,379.592 55.476,380.109 55.127 C 380.409 54.925,380.735 54.578,380.833 54.355 C 380.938 54.119,381.174 53.951,381.402 53.951 C 382.085 53.951,382.743 52.858,382.743 51.726 C 382.743 50.673,383.894 49.136,385.155 48.505 C 385.432 48.367,385.704 48.076,385.758 47.860 C 385.861 47.451,386.925 46.819,387.557 46.791 C 388.024 46.771,388.106 44.607,387.651 44.325 C 387.336 44.131,387.341 44.125,388.333 43.694 C 388.841 43.473,389.145 43.210,389.215 42.932 C 389.274 42.698,389.395 42.507,389.484 42.507 C 389.573 42.507,389.646 42.353,389.646 42.165 C 389.646 41.971,389.810 41.780,390.023 41.724 C 390.230 41.670,390.442 41.461,390.495 41.261 C 390.547 41.060,390.868 40.764,391.208 40.603 C 391.548 40.442,391.826 40.251,391.826 40.180 C 391.826 40.108,392.010 39.969,392.234 39.871 C 392.466 39.769,392.670 39.494,392.706 39.237 C 392.798 38.570,393.070 38.329,393.727 38.329 C 394.897 38.329,395.280 37.150,394.460 36.074 C 393.861 35.289,393.878 35.241,394.746 35.241 C 395.907 35.241,396.589 34.461,396.533 33.198 C 396.474 31.880,397.353 30.387,398.238 30.301 C 398.681 30.259,398.833 30.148,398.877 29.837 C 398.909 29.612,399.011 29.428,399.104 29.428 C 399.197 29.428,399.273 29.264,399.273 29.064 C 399.273 28.822,399.394 28.701,399.637 28.701 C 399.982 28.701,400.000 28.580,400.000 26.249 L 400.000 23.797 338.738 23.818 C 305.043 23.829,277.329 23.877,277.150 23.923 "
       stroke="none"
       fill="#fcfcfc"
       fill-rule="evenodd"
       style="fill:#000000" />
    <path
       id="path1"
       d="M8.901 71.390 C 8.901 71.490,9.024 71.571,9.173 71.571 C 9.323 71.571,9.446 71.490,9.446 71.390 C 9.446 71.290,9.323 71.208,9.173 71.208 C 9.024 71.208,8.901 71.290,8.901 71.390 M315.713 71.390 C 315.713 71.490,315.836 71.571,315.985 71.571 C 316.135 71.571,316.258 71.490,316.258 71.390 C 316.258 71.290,316.135 71.208,315.985 71.208 C 315.836 71.208,315.713 71.290,315.713 71.390 M362.761 72.214 C 361.813 72.409,357.185 72.459,339.313 72.468 C 327.066 72.475,316.985 72.541,316.911 72.616 C 316.837 72.691,316.234 72.834,315.571 72.934 C 314.413 73.108,314.352 73.144,313.995 73.842 C 313.791 74.242,313.440 74.718,313.215 74.900 C 312.990 75.082,312.807 75.415,312.807 75.641 C 312.807 75.907,312.631 76.139,312.307 76.301 C 311.656 76.626,310.990 77.214,310.990 77.463 C 310.990 77.571,310.827 77.762,310.629 77.886 C 310.412 78.021,310.221 78.402,310.151 78.838 C 310.070 79.348,309.945 79.564,309.733 79.564 C 309.432 79.564,307.349 82.544,307.099 83.334 C 307.031 83.548,306.673 83.908,306.303 84.132 C 305.466 84.641,305.365 84.785,305.362 85.482 C 305.360 85.892,305.237 86.107,304.905 86.285 C 304.655 86.419,304.450 86.628,304.450 86.751 C 304.450 86.873,304.324 87.021,304.170 87.081 C 304.015 87.140,303.769 87.476,303.622 87.827 C 303.476 88.178,303.234 88.465,303.086 88.465 C 302.937 88.465,302.816 88.578,302.816 88.715 C 302.816 88.853,302.693 89.067,302.543 89.192 C 302.393 89.316,302.271 89.571,302.271 89.759 C 302.271 89.946,302.194 90.100,302.101 90.100 C 302.008 90.100,301.886 90.245,301.830 90.422 C 301.774 90.599,301.478 91.017,301.173 91.351 C 300.868 91.685,300.571 92.197,300.512 92.489 C 300.454 92.780,300.253 93.101,300.067 93.201 C 299.880 93.301,299.728 93.458,299.728 93.551 C 299.728 93.736,298.715 94.823,298.543 94.823 C 298.149 94.823,297.169 95.903,297.066 96.449 C 296.942 97.109,296.805 97.332,296.140 97.956 C 295.883 98.197,295.731 98.553,295.731 98.914 C 295.731 99.350,295.622 99.537,295.277 99.694 C 295.027 99.808,294.823 100.020,294.823 100.166 C 294.823 100.311,294.659 100.482,294.460 100.545 C 294.260 100.608,294.096 100.730,294.096 100.816 C 294.096 100.901,293.904 101.202,293.670 101.485 C 293.435 101.767,293.185 102.238,293.113 102.531 C 293.041 102.824,292.784 103.300,292.540 103.589 C 292.297 103.879,292.098 104.191,292.098 104.283 C 292.098 104.375,291.952 104.450,291.774 104.450 C 291.447 104.450,290.827 105.299,290.826 105.750 C 290.825 105.885,290.457 106.383,290.008 106.857 C 289.559 107.331,289.192 107.849,289.192 108.009 C 289.192 108.169,289.028 108.342,288.828 108.394 C 288.629 108.446,288.465 108.559,288.465 108.643 C 288.465 108.728,288.220 109.049,287.920 109.355 C 287.562 109.721,287.375 110.098,287.375 110.451 C 287.375 110.748,287.293 110.990,287.193 110.990 C 287.094 110.990,287.012 111.194,287.012 111.444 C 287.012 111.727,286.909 111.898,286.739 111.898 C 286.589 111.898,286.467 111.960,286.466 112.035 C 286.466 112.267,285.485 113.292,285.150 113.410 C 284.975 113.471,284.832 113.602,284.832 113.699 C 284.832 113.796,284.546 114.187,284.196 114.568 C 283.846 114.948,283.513 115.402,283.457 115.577 C 283.400 115.752,283.240 115.895,283.100 115.895 C 282.786 115.895,282.470 116.458,282.470 117.020 C 282.470 117.252,282.307 117.544,282.107 117.669 C 281.907 117.794,281.744 117.986,281.744 118.095 C 281.744 118.205,281.540 118.455,281.290 118.652 C 281.040 118.848,280.836 119.170,280.836 119.367 C 280.836 119.760,280.851 119.738,279.559 121.149 C 278.869 121.903,278.656 122.272,278.656 122.718 C 278.656 123.154,278.561 123.325,278.279 123.399 C 278.072 123.453,277.858 123.667,277.804 123.874 C 277.749 124.081,277.598 124.251,277.466 124.251 C 277.335 124.251,277.040 124.516,276.812 124.841 C 276.584 125.166,276.292 125.539,276.164 125.671 C 276.036 125.803,275.931 126.028,275.931 126.171 C 275.931 126.314,275.849 126.431,275.749 126.431 C 275.649 126.431,275.568 126.543,275.568 126.681 C 275.568 126.819,275.159 127.360,274.659 127.884 C 274.099 128.471,273.751 128.999,273.751 129.261 C 273.751 129.519,273.430 130.017,272.934 130.527 C 272.484 130.990,272.116 131.524,272.116 131.715 C 272.116 131.906,271.996 132.062,271.850 132.062 C 271.448 132.062,270.300 133.191,270.300 133.587 C 270.300 133.778,270.095 134.203,269.846 134.530 C 269.596 134.858,269.391 135.213,269.391 135.319 C 269.391 135.426,269.310 135.513,269.210 135.513 C 269.110 135.513,269.028 135.632,269.028 135.776 C 269.028 135.921,268.744 136.256,268.396 136.521 C 267.834 136.951,267.212 137.862,267.212 138.258 C 267.212 138.338,267.007 138.607,266.757 138.857 C 266.508 139.107,266.303 139.428,266.303 139.571 C 266.303 139.714,266.129 139.876,265.916 139.932 C 265.626 140.008,265.554 140.131,265.630 140.421 C 265.731 140.806,265.493 141.151,264.745 141.700 C 264.365 141.980,263.760 142.844,263.760 143.107 C 263.760 143.195,263.392 143.656,262.943 144.132 C 262.493 144.608,262.125 145.092,262.125 145.207 C 262.125 145.405,261.578 146.035,260.953 146.556 C 260.786 146.695,260.672 147.082,260.672 147.509 C 260.672 148.072,260.603 148.230,260.354 148.234 C 259.937 148.241,259.167 149.054,258.768 149.909 C 258.594 150.284,258.378 150.590,258.290 150.590 C 258.201 150.590,258.129 150.724,258.129 150.888 C 258.129 151.248,257.616 151.667,257.167 151.675 C 256.633 151.684,255.977 152.554,255.846 153.425 C 255.625 154.900,253.110 154.775,281.994 154.724 L 307.811 154.678 307.866 154.022 C 307.906 153.545,308.042 153.302,308.366 153.128 C 308.862 152.862,309.537 151.832,309.537 151.338 C 309.537 151.162,309.680 150.887,309.855 150.729 C 311.110 149.588,311.353 149.304,311.353 148.974 C 311.353 148.768,311.558 148.467,311.807 148.303 C 312.057 148.139,312.262 147.883,312.262 147.734 C 312.262 147.581,312.368 147.504,312.509 147.558 C 312.683 147.625,312.844 147.335,313.054 146.579 C 313.219 145.988,313.436 145.504,313.538 145.504 C 313.640 145.504,313.801 145.300,313.896 145.050 C 313.991 144.800,314.153 144.596,314.255 144.596 C 314.358 144.596,314.441 144.434,314.441 144.236 C 314.441 144.004,314.602 143.836,314.892 143.763 C 315.270 143.668,316.030 142.826,316.894 141.545 C 316.994 141.397,317.259 141.071,317.484 140.820 C 317.709 140.570,317.893 140.172,317.893 139.937 C 317.893 139.702,317.986 139.510,318.099 139.510 C 318.558 139.510,320.073 137.196,320.073 136.495 C 320.073 136.355,320.160 136.240,320.267 136.240 C 320.501 136.240,320.981 135.785,320.981 135.563 C 320.981 135.476,321.254 135.306,321.588 135.185 C 322.176 134.972,322.616 134.359,322.616 133.751 C 322.616 133.590,322.806 133.206,323.038 132.896 C 323.270 132.587,323.513 132.191,323.577 132.016 C 323.642 131.842,323.779 131.698,323.882 131.698 C 323.985 131.698,324.069 131.592,324.069 131.462 C 324.069 130.990,324.532 130.260,324.888 130.170 C 325.089 130.120,325.412 129.810,325.605 129.481 C 325.798 129.152,326.063 128.775,326.193 128.643 C 326.324 128.511,326.431 128.222,326.431 128.002 C 326.431 127.782,326.574 127.466,326.748 127.301 C 327.252 126.826,327.520 126.461,327.520 126.253 C 327.520 126.147,327.827 125.776,328.202 125.427 C 329.117 124.576,329.035 124.666,330.014 123.430 C 330.491 122.829,331.036 122.053,331.225 121.705 C 331.414 121.357,331.720 120.904,331.904 120.700 C 332.087 120.495,332.288 120.086,332.349 119.791 C 332.420 119.445,332.714 119.077,333.176 118.752 C 333.570 118.476,333.942 118.108,334.003 117.935 C 334.064 117.762,334.276 117.441,334.473 117.221 C 334.671 117.001,334.784 116.695,334.724 116.540 C 334.665 116.385,334.684 116.258,334.768 116.258 C 335.098 116.258,336.785 114.721,336.785 114.420 C 336.785 114.244,336.866 114.049,336.966 113.987 C 337.066 113.926,337.148 113.720,337.148 113.531 C 337.148 113.342,337.259 113.123,337.394 113.043 C 337.725 112.847,338.056 112.189,338.056 111.729 C 338.056 111.437,338.172 111.353,338.573 111.353 C 339.219 111.353,339.690 110.851,339.694 110.158 C 339.697 109.539,339.842 109.283,340.282 109.121 C 340.456 109.056,340.599 108.846,340.599 108.654 C 340.599 108.461,340.722 108.257,340.872 108.200 C 341.022 108.142,341.144 107.929,341.144 107.726 C 341.144 107.523,341.221 107.357,341.314 107.357 C 341.407 107.357,341.534 107.198,341.596 107.003 C 341.657 106.808,341.850 106.604,342.023 106.549 C 342.196 106.494,342.473 106.224,342.639 105.949 C 342.806 105.674,343.314 105.054,343.769 104.571 C 344.351 103.953,344.596 103.540,344.596 103.176 C 344.596 102.832,344.709 102.623,344.932 102.552 C 345.116 102.493,345.361 102.263,345.475 102.040 C 345.795 101.416,346.101 100.971,346.557 100.464 C 346.786 100.209,347.148 99.714,347.361 99.364 C 347.573 99.015,348.142 98.304,348.624 97.786 C 349.198 97.168,349.500 96.682,349.500 96.378 C 349.500 96.073,349.600 95.913,349.790 95.913 C 349.949 95.913,350.120 95.757,350.170 95.566 C 350.220 95.376,350.416 95.179,350.606 95.129 C 350.796 95.080,351.002 94.888,351.063 94.704 C 351.347 93.847,351.924 92.812,352.452 92.210 C 352.627 92.011,352.770 91.799,352.770 91.739 C 352.770 91.679,353.097 91.268,353.497 90.827 C 353.896 90.385,354.223 89.877,354.223 89.698 C 354.223 89.520,354.304 89.373,354.403 89.373 C 354.501 89.373,354.800 89.028,355.067 88.605 C 355.334 88.183,355.662 87.727,355.796 87.593 C 355.930 87.459,356.040 87.232,356.040 87.090 C 356.040 86.929,356.230 86.828,356.540 86.824 C 357.139 86.818,357.569 86.286,357.746 85.332 C 357.816 84.957,357.937 84.650,358.016 84.650 C 358.094 84.650,358.270 84.441,358.407 84.186 C 358.598 83.828,358.752 83.745,359.074 83.826 C 359.464 83.924,359.491 83.876,359.491 83.104 C 359.491 82.387,359.576 82.204,360.127 81.720 C 360.477 81.412,360.763 81.057,360.763 80.929 C 360.763 80.801,360.927 80.653,361.127 80.601 C 361.358 80.541,361.534 80.294,361.607 79.932 C 361.670 79.616,361.915 79.231,362.151 79.077 C 362.386 78.922,362.579 78.647,362.579 78.465 C 362.579 78.284,362.743 78.083,362.943 78.020 C 363.143 77.957,363.306 77.842,363.306 77.765 C 363.306 77.688,363.608 77.238,363.977 76.765 C 364.537 76.046,364.660 75.728,364.725 74.832 C 364.768 74.228,364.912 73.669,365.053 73.552 C 365.422 73.246,365.361 72.883,364.858 72.380 C 364.356 71.879,364.378 71.880,362.761 72.214 M47.738 72.577 C 47.688 72.627,39.154 72.701,28.773 72.741 C 18.393 72.781,9.369 72.882,8.719 72.965 L 7.539 73.115 7.235 74.024 C 7.009 74.701,6.928 75.627,6.917 77.662 C 6.903 80.443,6.730 81.199,6.109 81.199 C 5.515 81.199,5.245 82.471,5.137 85.773 C 5.058 88.164,4.971 89.010,4.806 89.010 C 4.595 89.010,4.498 89.363,4.243 91.054 C 4.186 91.428,4.038 91.735,3.913 91.735 C 3.653 91.735,3.454 93.751,3.452 96.402 C 3.452 97.320,3.370 98.122,3.270 98.183 C 3.170 98.245,3.088 98.209,3.088 98.103 C 3.088 97.755,2.609 97.903,2.390 98.320 C 2.272 98.545,2.095 100.077,1.997 101.726 C 1.815 104.802,1.625 106.469,1.294 107.902 C 1.191 108.351,1.102 109.183,1.098 109.749 C 1.090 110.805,0.537 112.443,0.188 112.443 C 0.060 112.443,0.000 117.159,0.000 127.243 L 0.000 142.044 0.500 141.952 C 1.006 141.858,1.683 142.934,2.386 144.951 C 2.529 145.360,2.692 145.504,3.015 145.504 C 3.322 145.504,3.451 145.606,3.451 145.848 C 3.451 146.037,3.575 146.239,3.727 146.297 C 3.878 146.356,4.077 146.600,4.168 146.841 C 4.260 147.082,4.591 147.391,4.903 147.527 C 5.364 147.728,5.456 147.859,5.389 148.217 C 5.265 148.876,5.412 149.097,6.135 149.335 C 6.494 149.454,6.971 149.723,7.194 149.934 C 8.064 150.756,8.579 151.135,8.826 151.135 C 9.143 151.135,9.165 151.438,8.856 151.553 C 8.431 151.710,9.199 152.270,9.929 152.335 C 10.312 152.369,10.716 152.522,10.827 152.675 C 10.939 152.827,11.108 152.952,11.204 152.952 C 11.300 152.952,11.700 153.238,12.092 153.588 C 12.485 153.937,12.940 154.223,13.102 154.223 C 13.265 154.223,13.500 154.346,13.624 154.496 C 13.968 154.910,97.198 154.910,97.613 154.496 C 97.762 154.346,98.002 154.223,98.146 154.223 C 98.289 154.223,98.601 154.035,98.840 153.804 C 99.483 153.181,101.273 152.407,102.072 152.407 C 102.865 152.407,103.210 152.110,103.064 151.554 C 102.982 151.240,103.086 151.135,103.662 150.950 C 104.046 150.827,104.482 150.630,104.632 150.512 C 104.782 150.394,105.132 150.200,105.409 150.082 C 105.687 149.964,105.961 149.744,106.019 149.593 C 106.077 149.442,106.270 149.319,106.449 149.319 C 106.627 149.319,106.820 149.196,106.878 149.046 C 106.935 148.896,107.189 148.774,107.442 148.774 C 107.832 148.774,107.902 148.691,107.902 148.229 C 107.902 147.815,107.985 147.684,108.246 147.684 C 108.436 147.684,109.013 147.245,109.529 146.709 C 110.046 146.173,110.672 145.626,110.922 145.492 C 111.222 145.331,111.347 145.138,111.291 144.922 C 111.244 144.743,111.296 144.596,111.406 144.596 C 111.722 144.596,112.625 143.651,112.625 143.319 C 112.625 143.154,112.829 142.926,113.079 142.812 C 113.329 142.699,113.533 142.491,113.533 142.350 C 113.533 142.210,113.697 142.052,113.898 142.000 C 114.126 141.940,114.304 141.694,114.374 141.343 C 114.436 141.034,114.555 140.781,114.638 140.781 C 114.847 140.781,115.713 139.829,115.713 139.600 C 115.713 139.498,115.917 139.261,116.167 139.073 C 116.417 138.886,116.621 138.630,116.621 138.506 C 116.621 138.382,116.826 138.146,117.075 137.982 C 117.325 137.819,117.530 137.564,117.530 137.416 C 117.530 137.269,117.611 137.148,117.711 137.148 C 117.811 137.148,117.893 137.041,117.893 136.910 C 117.893 136.524,118.785 134.787,118.983 134.787 C 119.083 134.787,119.164 134.614,119.164 134.402 C 119.164 134.010,119.634 132.408,119.917 131.837 C 120.002 131.664,120.073 131.357,120.073 131.156 C 120.073 130.955,120.185 130.790,120.323 130.790 C 120.566 130.790,120.738 130.453,121.147 129.174 C 121.255 128.834,121.344 127.962,121.344 127.235 C 121.344 126.090,121.405 125.841,121.798 125.374 C 122.048 125.077,122.252 124.662,122.252 124.452 C 122.252 124.198,122.368 124.069,122.595 124.069 C 123.084 124.069,123.155 123.612,123.158 120.481 C 123.160 118.331,123.214 117.711,123.397 117.711 C 123.616 117.711,124.069 116.072,124.069 115.280 C 124.069 115.104,124.192 114.838,124.342 114.688 C 124.542 114.487,124.614 113.996,124.614 112.822 C 124.614 110.597,124.948 108.295,125.325 107.917 C 125.497 107.745,125.733 107.017,125.862 106.258 C 125.988 105.513,126.209 104.373,126.353 103.724 C 126.521 102.959,126.613 101.477,126.613 99.511 C 126.612 97.844,126.685 96.434,126.773 96.380 C 126.862 96.325,126.989 95.991,127.055 95.637 C 127.121 95.283,127.331 94.731,127.521 94.408 C 127.808 93.923,127.888 93.290,127.994 90.690 C 128.064 88.967,128.163 87.557,128.215 87.557 C 128.267 87.557,128.457 87.691,128.638 87.854 C 128.906 88.097,128.980 88.105,129.044 87.899 C 129.470 86.526,129.596 85.608,129.699 83.106 C 129.779 81.197,129.929 79.826,130.138 79.110 C 130.313 78.510,130.500 77.754,130.553 77.428 C 130.605 77.102,130.721 76.791,130.810 76.736 C 131.505 76.307,130.797 72.893,129.982 72.745 C 128.662 72.505,77.746 72.601,74.184 72.850 C 70.467 73.110,70.418 73.151,70.215 76.113 C 69.929 80.274,69.921 80.329,69.568 80.421 C 69.129 80.536,68.935 81.694,68.571 86.376 C 68.509 87.175,68.386 88.074,68.299 88.374 C 68.211 88.674,68.006 89.410,67.843 90.009 C 67.681 90.609,67.476 91.262,67.390 91.462 C 67.102 92.125,66.991 93.424,66.912 97.023 C 66.835 100.527,66.827 100.593,66.387 101.006 C 66.093 101.282,65.940 101.624,65.940 102.008 C 65.940 102.328,65.817 102.691,65.668 102.816 C 65.471 102.979,65.395 103.410,65.395 104.360 C 65.395 105.310,65.471 105.741,65.668 105.904 C 65.817 106.028,65.940 106.226,65.940 106.344 C 65.940 106.904,67.132 106.994,74.607 106.994 C 80.420 106.994,82.083 107.044,82.134 107.221 C 82.322 107.877,82.071 111.353,81.835 111.353 C 81.542 111.353,81.451 111.634,81.292 113.034 C 81.222 113.645,81.084 114.079,80.959 114.080 C 63.765 114.251,43.052 114.131,43.052 113.862 C 43.052 113.693,43.124 113.510,43.213 113.455 C 43.301 113.400,43.427 113.071,43.493 112.723 C 43.558 112.375,43.749 112.013,43.918 111.918 C 44.244 111.736,44.461 110.039,44.491 107.439 C 44.498 106.734,44.573 106.080,44.656 105.985 C 44.922 105.681,45.232 104.343,45.232 103.497 C 45.232 102.853,45.303 102.658,45.566 102.589 C 45.936 102.492,46.137 100.880,46.139 97.979 C 46.140 96.889,46.211 96.443,46.412 96.276 C 46.622 96.102,46.685 95.621,46.685 94.180 C 46.685 92.335,47.036 90.898,47.568 90.570 C 47.816 90.416,47.929 89.479,48.119 85.988 C 48.262 83.351,48.317 83.018,48.668 82.667 C 48.882 82.453,49.106 82.035,49.166 81.738 C 49.286 81.138,49.521 81.030,49.648 81.517 C 49.699 81.712,49.739 81.642,49.752 81.335 C 49.765 81.022,49.680 80.836,49.523 80.836 C 49.108 80.836,49.163 77.046,49.586 76.567 C 50.390 75.654,50.234 73.346,49.340 72.948 C 48.642 72.636,47.859 72.455,47.738 72.577 M213.442 72.691 C 164.784 72.829,162.692 72.858,162.125 73.397 C 160.734 74.721,160.866 74.659,159.391 74.659 C 157.896 74.659,156.948 75.019,156.948 75.587 C 156.948 75.916,156.594 76.113,156.004 76.113 C 155.801 76.113,155.338 76.269,154.975 76.460 C 154.611 76.651,154.163 76.856,153.979 76.915 C 153.795 76.974,153.601 77.186,153.549 77.385 C 153.485 77.630,153.300 77.749,152.976 77.751 C 151.590 77.761,150.681 78.197,150.681 78.851 C 150.681 79.375,150.610 79.483,150.232 79.537 C 149.985 79.571,149.549 79.796,149.264 80.036 C 148.979 80.276,148.630 80.472,148.487 80.472 C 148.345 80.472,148.229 80.554,148.229 80.654 C 148.229 80.754,148.142 80.836,148.035 80.836 C 147.686 80.836,146.419 82.008,146.416 82.334 C 146.414 82.509,146.279 82.652,146.115 82.652 C 145.952 82.652,145.637 82.836,145.416 83.061 C 145.195 83.286,144.756 83.701,144.442 83.985 C 144.127 84.268,143.869 84.656,143.869 84.847 C 143.869 85.097,143.741 85.195,143.415 85.195 C 143.165 85.195,142.961 85.283,142.961 85.389 C 142.961 85.496,142.691 85.843,142.360 86.161 C 141.335 87.147,140.781 88.009,140.781 88.618 C 140.781 88.934,140.688 89.192,140.575 89.192 C 140.270 89.192,138.966 90.511,138.959 90.827 C 138.955 90.976,138.587 91.503,138.141 91.996 C 137.572 92.625,137.330 93.051,137.330 93.421 C 137.330 93.783,137.223 93.976,136.991 94.037 C 136.805 94.086,136.473 94.485,136.254 94.924 C 136.035 95.364,135.778 95.770,135.684 95.829 C 135.590 95.887,135.513 96.170,135.513 96.458 C 135.513 96.746,135.431 97.032,135.332 97.094 C 135.232 97.155,135.150 97.408,135.150 97.655 C 135.150 98.229,134.680 99.364,134.442 99.364 C 134.342 99.364,134.230 98.894,134.194 98.320 C 134.144 97.517,134.121 97.646,134.094 98.877 C 134.075 99.757,133.970 100.647,133.859 100.853 C 133.749 101.059,133.588 102.354,133.502 103.730 C 133.362 105.966,133.296 106.305,132.885 106.911 C 132.619 107.304,132.425 107.846,132.425 108.200 C 132.425 108.820,132.085 109.074,132.034 108.492 C 131.978 107.865,131.734 111.298,131.714 112.988 C 131.691 114.951,131.569 115.590,131.243 115.465 C 130.716 115.263,130.609 115.804,130.609 118.658 C 130.609 120.238,130.536 121.673,130.448 121.846 C 130.360 122.020,130.185 122.407,130.059 122.707 C 129.934 123.006,129.727 123.497,129.600 123.797 C 129.473 124.096,129.270 124.709,129.150 125.159 C 129.030 125.609,128.866 126.181,128.786 126.431 C 128.706 126.680,128.591 128.189,128.530 129.784 C 128.435 132.297,128.374 132.732,128.073 133.053 C 127.836 133.306,127.667 133.887,127.542 134.877 C 127.441 135.677,127.233 136.862,127.080 137.511 C 126.893 138.304,126.800 139.627,126.798 141.536 C 126.794 144.240,126.777 144.376,126.449 144.290 C 126.177 144.219,126.075 144.327,125.972 144.799 C 125.899 145.129,125.688 145.606,125.502 145.860 C 125.217 146.251,125.152 146.766,125.082 149.207 C 125.034 150.890,124.920 152.174,124.807 152.286 C 124.701 152.393,124.614 152.669,124.614 152.900 C 124.614 153.131,124.512 153.483,124.388 153.682 C 124.221 153.949,124.214 154.125,124.363 154.360 C 124.552 154.661,127.743 154.678,186.214 154.678 L 247.866 154.678 247.916 152.356 L 247.967 150.034 248.515 149.925 C 249.458 149.736,249.591 149.199,249.591 145.604 C 249.591 143.656,249.660 142.416,249.768 142.416 C 250.077 142.416,250.500 141.372,250.500 140.608 C 250.500 140.103,250.578 139.873,250.751 139.873 C 251.117 139.873,251.212 139.224,251.344 135.835 C 251.448 133.180,251.503 132.783,251.776 132.696 C 252.234 132.551,252.679 130.750,252.679 129.043 C 252.679 128.246,252.752 127.515,252.841 127.421 C 252.930 127.326,253.051 125.940,253.110 124.342 C 253.225 121.251,253.460 120.171,254.114 119.737 C 254.474 119.498,254.496 119.325,254.496 116.781 L 254.496 114.078 253.588 114.078 C 252.901 114.078,252.679 114.012,252.679 113.806 C 252.679 113.656,252.598 113.533,252.498 113.533 C 252.398 113.533,252.316 113.656,252.316 113.806 C 252.316 114.047,247.929 114.078,213.919 114.078 C 192.801 114.078,175.258 114.131,174.935 114.196 L 174.348 114.313 174.466 113.333 C 174.530 112.794,174.627 111.356,174.681 110.138 C 174.770 108.132,174.820 107.880,175.210 107.459 L 175.641 106.994 200.718 106.994 C 216.223 106.994,225.795 106.929,225.795 106.823 C 225.795 106.729,226.173 106.596,226.636 106.526 C 227.099 106.457,227.625 106.253,227.804 106.074 C 228.084 105.794,228.529 105.740,230.945 105.690 C 233.572 105.635,233.788 105.604,234.194 105.223 C 234.433 104.998,234.725 104.814,234.844 104.814 C 234.962 104.814,235.060 104.752,235.060 104.678 C 235.063 104.289,236.248 103.906,237.442 103.906 C 238.817 103.906,239.600 103.571,239.600 102.985 C 239.600 102.740,239.783 102.620,240.282 102.536 C 241.328 102.360,242.144 102.079,242.144 101.893 C 242.144 101.801,242.301 101.726,242.494 101.726 C 242.686 101.726,243.004 101.521,243.201 101.272 C 243.397 101.022,243.669 100.815,243.805 100.812 C 244.182 100.803,244.599 100.420,244.885 99.818 C 245.045 99.484,245.365 99.202,245.713 99.089 C 246.400 98.866,247.734 97.768,247.884 97.302 C 247.968 97.041,248.111 96.988,248.513 97.069 C 249.165 97.199,249.722 96.743,249.394 96.348 C 249.237 96.159,249.236 96.094,249.391 96.094 C 249.506 96.094,250.036 95.658,250.569 95.124 C 251.103 94.591,251.673 94.103,251.837 94.040 C 252.001 93.977,252.278 93.617,252.452 93.239 C 252.772 92.546,252.918 92.378,253.926 91.553 C 254.231 91.303,254.484 90.959,254.488 90.787 C 254.492 90.616,254.659 90.389,254.859 90.282 C 255.059 90.175,255.223 89.979,255.223 89.846 C 255.223 89.714,255.427 89.452,255.677 89.265 C 255.926 89.077,256.131 88.865,256.131 88.794 C 256.131 88.628,257.376 87.414,257.635 87.328 C 257.743 87.292,257.887 86.721,257.955 86.059 C 258.052 85.126,258.199 84.700,258.612 84.163 C 259.339 83.216,259.582 82.592,259.582 81.677 C 259.582 81.048,259.702 80.767,260.218 80.187 C 260.575 79.787,260.901 79.194,260.961 78.837 C 261.019 78.488,261.189 77.930,261.338 77.599 C 261.750 76.682,261.760 74.071,261.353 73.620 C 261.178 73.427,261.035 73.186,261.035 73.084 C 261.035 72.817,259.745 72.473,258.925 72.522 C 258.537 72.545,238.070 72.621,213.442 72.691 M228.156 107.266 C 228.156 107.416,228.279 107.539,228.429 107.539 C 228.579 107.539,228.701 107.416,228.701 107.266 C 228.701 107.116,228.579 106.994,228.429 106.994 C 228.279 106.994,228.156 107.116,228.156 107.266 M309.173 154.133 C 309.173 154.282,309.296 154.405,309.446 154.405 C 309.596 154.405,309.718 154.282,309.718 154.133 C 309.718 153.983,309.596 153.860,309.446 153.860 C 309.296 153.860,309.173 153.983,309.173 154.133 "
       stroke="none"
       fill="#fc0404"
       fill-rule="evenodd" />
    <path
       id="path2"
       d=""
       stroke="none"
       fill="#fcc0100"
       fill-rule="evenodd" />
    <path
       id="path3"
       d=""
       stroke="none"
       fill="#fc4084"
       fill-rule="evenodd" />
    <path
       id="path4"
       d=""
       stroke="none"
       fill="#fc4404"
       fill-rule="evenodd" />
  </g>
</svg>
