<?xml version="1.0" encoding="utf-8"?>
<!-- Generator: Adobe Illustrator 16.0.2, SVG Export Plug-In . SVG Version: 6.00 Build 0)  -->
<!DOCTYPE svg PUBLIC "-//W3C//DTD SVG 1.1//EN" "http://www.w3.org/Graphics/SVG/1.1/DTD/svg11.dtd">
<svg version="1.1" id="Layer_1" xmlns="http://www.w3.org/2000/svg" xmlns:xlink="http://www.w3.org/1999/xlink" x="0px" y="0px"
	 width="11.327px" height="42.906px" viewBox="0 0 11.327 42.906" enable-background="new 0 0 11.327 42.906" xml:space="preserve">
<path fill="#5D4F46" d="M8.635,7.618c0,1.557-1.262,2.818-2.816,2.818C4.262,10.436,3,9.174,3,7.618
	c0-1.555,1.262-2.816,2.818-2.816C7.373,4.801,8.635,6.063,8.635,7.618"/>
<path fill="#5D4F46" d="M8.635,20.749c0,1.557-1.262,2.818-2.816,2.818C4.262,23.567,3,22.305,3,20.749
	c0-1.555,1.262-2.816,2.818-2.816C7.373,17.932,8.635,19.194,8.635,20.749"/>
<path fill="#5D4F46" d="M8.635,33.881c0,1.555-1.262,2.816-2.816,2.816C4.262,36.698,3,35.436,3,33.881
	c0-1.557,1.262-2.818,2.818-2.818C7.373,31.063,8.635,32.325,8.635,33.881"/>
</svg>
