<?xml version="1.0" encoding="utf-8"?>
<!-- Generator: Adobe Illustrator 16.0.2, SVG Export Plug-In . SVG Version: 6.00 Build 0)  -->
<!DOCTYPE svg PUBLIC "-//W3C//DTD SVG 1.1//EN" "http://www.w3.org/Graphics/SVG/1.1/DTD/svg11.dtd">
<svg version="1.1" id="Layer_1" xmlns="http://www.w3.org/2000/svg" xmlns:xlink="http://www.w3.org/1999/xlink" x="0px" y="0px"
	 width="63px" height="60px" viewBox="0 0 63 60" enable-background="new 0 0 63 60" xml:space="preserve">
<path fill="#5D4F46" d="M18.166,51.256c-0.168,0-0.334-0.051-0.473-0.152c-0.248-0.18-0.369-0.482-0.318-0.782l2.477-14.436
	L9.365,25.665c-0.221-0.215-0.299-0.532-0.205-0.821c0.094-0.29,0.344-0.501,0.65-0.544l14.488-2.108l6.482-13.133
	c0.137-0.273,0.416-0.446,0.719-0.446c0.305,0,0.584,0.173,0.717,0.446l6.482,13.133L53.193,24.3
	c0.301,0.043,0.551,0.254,0.646,0.544c0.096,0.289,0.018,0.61-0.203,0.821L43.15,35.886l2.475,14.436
	c0.053,0.3-0.072,0.606-0.32,0.786c-0.246,0.179-0.57,0.203-0.84,0.058L31.5,44.352l-12.963,6.814
	C18.419,51.229,18.291,51.256,18.166,51.256 M11.646,25.649l9.625,9.384c0.188,0.183,0.273,0.45,0.23,0.708L19.23,48.991
	l11.898-6.255c0.232-0.121,0.508-0.121,0.744,0l11.9,6.255L41.5,35.742c-0.043-0.258,0.043-0.525,0.23-0.708l9.627-9.384
	l-13.305-1.933c-0.262-0.039-0.484-0.203-0.602-0.438L31.5,11.226L25.55,23.279c-0.117,0.239-0.344,0.403-0.602,0.438L11.646,25.649
	z"/>
</svg>
