<?xml version="1.0" encoding="utf-8"?>
<!-- Generator: Adobe Illustrator 16.0.2, SVG Export Plug-In . SVG Version: 6.00 Build 0)  -->
<!DOCTYPE svg PUBLIC "-//W3C//DTD SVG 1.1//EN" "http://www.w3.org/Graphics/SVG/1.1/DTD/svg11.dtd">
<svg version="1.1" id="Layer_1" xmlns="http://www.w3.org/2000/svg" xmlns:xlink="http://www.w3.org/1999/xlink" x="0px" y="0px"
	 width="63px" height="60px" viewBox="0 0 63 60" enable-background="new 0 0 63 60" xml:space="preserve">
<path fill="#5D4F46" d="M22.893,20.712c0,0.778-0.631,1.409-1.407,1.409c-0.779,0-1.409-0.631-1.409-1.409
	c0-0.776,0.63-1.408,1.409-1.408C22.262,19.304,22.893,19.936,22.893,20.712"/>
<path fill="#5D4F46" d="M29.569,20.712c0,0.778-0.63,1.409-1.407,1.409c-0.779,0-1.408-0.631-1.408-1.409
	c0-0.776,0.629-1.408,1.408-1.408C28.939,19.304,29.569,19.936,29.569,20.712"/>
<path fill="#5D4F46" d="M36.247,20.712c0,0.778-0.631,1.409-1.409,1.409c-0.777,0-1.407-0.631-1.407-1.409
	c0-0.776,0.63-1.408,1.407-1.408C35.616,19.304,36.247,19.936,36.247,20.712"/>
<path fill="#5D4F46" d="M42.924,20.712c0,0.778-0.631,1.409-1.408,1.409c-0.778,0-1.408-0.631-1.408-1.409
	c0-0.776,0.63-1.408,1.408-1.408C42.293,19.304,42.924,19.936,42.924,20.712"/>
<path fill="#5D4F46" d="M22.893,26.356c0,0.777-0.631,1.408-1.407,1.408c-0.779,0-1.409-0.631-1.409-1.408s0.63-1.409,1.409-1.409
	C22.262,24.947,22.893,25.579,22.893,26.356"/>
<path fill="#5D4F46" d="M29.569,26.356c0,0.777-0.63,1.408-1.407,1.408c-0.779,0-1.408-0.631-1.408-1.408s0.629-1.409,1.408-1.409
	C28.939,24.947,29.569,25.579,29.569,26.356"/>
<path fill="#5D4F46" d="M36.247,26.356c0,0.777-0.631,1.408-1.409,1.408c-0.777,0-1.407-0.631-1.407-1.408s0.63-1.409,1.407-1.409
	C35.616,24.947,36.247,25.579,36.247,26.356"/>
<path fill="#5D4F46" d="M42.924,26.356c0,0.777-0.631,1.408-1.408,1.408c-0.778,0-1.408-0.631-1.408-1.408s0.63-1.409,1.408-1.409
	C42.293,24.947,42.924,25.579,42.924,26.356"/>
<path fill="#5D4F46" d="M22.893,32c0,0.778-0.631,1.409-1.407,1.409c-0.779,0-1.409-0.631-1.409-1.409
	c0-0.776,0.63-1.408,1.409-1.408C22.262,30.592,22.893,31.224,22.893,32"/>
<path fill="#5D4F46" d="M29.569,32c0,0.778-0.63,1.409-1.407,1.409c-0.779,0-1.408-0.631-1.408-1.409
	c0-0.776,0.629-1.408,1.408-1.408C28.939,30.592,29.569,31.224,29.569,32"/>
<path fill="#5D4F46" d="M36.247,32c0,0.778-0.631,1.409-1.409,1.409c-0.777,0-1.407-0.631-1.407-1.409
	c0-0.776,0.63-1.408,1.407-1.408C35.616,30.592,36.247,31.224,36.247,32"/>
<path fill="#5D4F46" d="M42.924,32c0,0.778-0.631,1.409-1.408,1.409c-0.778,0-1.408-0.631-1.408-1.409
	c0-0.776,0.63-1.408,1.408-1.408C42.293,30.592,42.924,31.224,42.924,32"/>
<path fill="#5D4F46" d="M22.893,37.645c0,0.777-0.631,1.408-1.407,1.408c-0.779,0-1.409-0.631-1.409-1.408
	c0-0.778,0.63-1.409,1.409-1.409C22.262,36.235,22.893,36.866,22.893,37.645"/>
<path fill="#5D4F46" d="M29.569,37.645c0,0.777-0.63,1.408-1.407,1.408c-0.779,0-1.408-0.631-1.408-1.408
	c0-0.778,0.629-1.409,1.408-1.409C28.939,36.235,29.569,36.866,29.569,37.645"/>
<path fill="#5D4F46" d="M36.247,37.645c0,0.777-0.631,1.408-1.409,1.408c-0.777,0-1.407-0.631-1.407-1.408
	c0-0.778,0.63-1.409,1.407-1.409C35.616,36.235,36.247,36.866,36.247,37.645"/>
<path fill="#5D4F46" d="M42.924,37.645c0,0.777-0.631,1.408-1.408,1.408c-0.778,0-1.408-0.631-1.408-1.408
	c0-0.778,0.63-1.409,1.408-1.409C42.293,36.235,42.924,36.866,42.924,37.645"/>
<path fill="#5D4F46" d="M22.893,43.288c0,0.778-0.631,1.408-1.407,1.408c-0.779,0-1.409-0.63-1.409-1.408
	c0-0.777,0.63-1.408,1.409-1.408C22.262,41.88,22.893,42.511,22.893,43.288"/>
<path fill="#5D4F46" d="M29.569,43.288c0,0.778-0.63,1.408-1.407,1.408c-0.779,0-1.408-0.63-1.408-1.408
	c0-0.777,0.629-1.408,1.408-1.408C28.939,41.88,29.569,42.511,29.569,43.288"/>
<path fill="#5D4F46" d="M36.247,43.288c0,0.778-0.631,1.408-1.409,1.408c-0.777,0-1.407-0.63-1.407-1.408
	c0-0.777,0.63-1.408,1.407-1.408C35.616,41.88,36.247,42.511,36.247,43.288"/>
<path fill="#5D4F46" d="M42.924,43.288c0,0.778-0.631,1.408-1.408,1.408c-0.778,0-1.408-0.63-1.408-1.408
	c0-0.777,0.63-1.408,1.408-1.408C42.293,41.88,42.924,42.511,42.924,43.288"/>
</svg>
