<?xml version="1.0" encoding="utf-8"?>
<!-- Generator: Adobe Illustrator 22.0.0, SVG Export Plug-In . SVG Version: 6.00 Build 0)  -->
<svg version="1.1" id="Camada_1" xmlns="http://www.w3.org/2000/svg" xmlns:xlink="http://www.w3.org/1999/xlink" x="0px" y="0px"
	 viewBox="0 0 493 47" style="enable-background:new 0 0 493 47;" xml:space="preserve">
<style type="text/css">
	.st0{fill:#231F20;}
	.st1{fill:#58595B;}
</style>
<g>
	<path class="st0" d="M16.1,38.8V10.2h18.3v5H21.9v8.4h10.2v5H21.9v10.1h-5.8C16.1,38.7,16.1,38.8,16.1,38.8z"/>
	<path class="st0" d="M43,29.3c0,3.3,1.7,5,5.1,5c3.4,0,5.1-1.7,5.1-5V10.2H59v18.9c0,3.5-0.9,6.1-2.7,7.7c-1.8,1.6-4.5,2.5-8.2,2.5
		c-3.6,0-6.4-0.8-8.2-2.5c-1.8-1.6-2.7-4.2-2.7-7.7V10.2H43V29.3z"/>
	<path class="st0" d="M63.9,38.8V10.2h18.5v5H69.7V22h10.2v5H69.7v6.9h12.7v5H63.9V38.8z"/>
	<path class="st0" d="M102.4,38.8H86.1V10.2h5.8v23.5h10.5V38.8z"/>
	<path class="st1" d="M113.6,38.8V9.7H131v2.9h-14.2V24h12v2.9h-12v12h-3.2C113.6,38.9,113.6,38.8,113.6,38.8z"/>
	<path class="st1" d="M156,24.5c0,5.2-0.8,8.9-2.5,11.3s-4.7,3.5-9,3.5c-4.4,0-7.4-1.2-9-3.6c-1.7-2.4-2.5-6.1-2.5-11.2
		s0.8-8.9,2.5-11.4s4.7-3.7,9-3.7s7.3,1.2,9,3.7C155.2,15.5,156,19.3,156,24.5z M136.4,24.4c0,4.3,0.6,7.3,1.7,9.2
		c1.1,1.9,3.3,2.8,6.5,2.8s5.4-0.9,6.5-2.7s1.7-4.9,1.7-9.2s-0.6-7.4-1.7-9.4c-1.1-2-3.3-2.9-6.5-2.9s-5.3,1-6.4,2.9
		C136.9,17,136.4,20.1,136.4,24.4z"/>
	<path class="st1" d="M164.2,27.7v11.1H161V9.7h10.8c3.1,0,5.4,0.7,7,2.1s2.3,3.7,2.3,6.7c0,4.5-1.8,7.3-5.3,8.5l5.6,11.8h-3.6
		l-5.3-11.1C172.5,27.7,164.2,27.7,164.2,27.7z M171.7,24.8c4,0,5.9-2,5.9-6.1s-2-6.1-6-6.1h-7.5v12.2H171.7z"/>
	<path class="st0" d="M204,30.5h-4.7v8.3h-5.8V10.2H204c6.8,0,10.2,3.3,10.2,9.9c0,3.3-0.9,5.9-2.6,7.7
		C209.9,29.6,207.4,30.5,204,30.5z M199.3,25.5h4.7c2.9,0,4.3-1.8,4.3-5.4c0-1.8-0.4-3-1.1-3.8c-0.7-0.8-1.8-1.2-3.3-1.2h-4.7v10.4
		H199.3z"/>
	<path class="st0" d="M223,29.2v9.6h-5.8V10.2h11.1c6.7,0,10.1,3.1,10.1,9.4c0,3.7-1.4,6.5-4.2,8.2l4.1,10.9h-6.4l-3.3-9.6H223V29.2
		z M231.5,23c0.7-0.8,1-1.9,1-3.3s-0.4-2.5-1.1-3.3c-0.7-0.8-1.7-1.2-3.1-1.2H223v9.1h5.4C229.8,24.3,230.8,23.8,231.5,23z"/>
	<path class="st0" d="M262,35.8c-1.8,2.4-4.8,3.6-9.2,3.6c-4.3,0-7.4-1.2-9.2-3.6c-1.8-2.4-2.7-6.1-2.7-11.1s0.9-8.8,2.7-11.2
		c1.8-2.5,4.8-3.7,9.2-3.7c4.3,0,7.4,1.2,9.2,3.7s2.7,6.2,2.7,11.2S263.8,33.4,262,35.8z M248.2,32.1c0.8,1.5,2.4,2.2,4.6,2.2
		s3.8-0.7,4.6-2.2s1.2-3.9,1.2-7.4s-0.4-6-1.3-7.5c-0.8-1.6-2.4-2.4-4.6-2.4c-2.2,0-3.8,0.8-4.6,2.4s-1.3,4.1-1.3,7.5
		C247,28.1,247.4,30.6,248.2,32.1z"/>
	<path class="st0" d="M268.6,38.8V10.2h18.3v5h-12.4v8.4h10.2v5h-10.2v10.1h-5.9V38.8z"/>
	<path class="st0" d="M289.9,38.8V10.2h18.5v5h-12.7V22h10.2v5h-10.2v6.9h12.7v5h-18.5V38.8z"/>
	<path class="st0" d="M320.9,14.8c-3.1,0-4.6,1-4.6,3c0,0.9,0.4,1.6,1.1,2.1c0.8,0.5,2.5,1.2,5.3,2.1s4.7,1.9,5.9,3
		c1.1,1.1,1.7,2.9,1.7,5.2c0,3-0.9,5.3-2.7,6.8c-1.8,1.5-4.2,2.3-7.1,2.3c-2.2,0-4.9-0.3-8-1L311,38l0.6-4.5
		c3.8,0.5,6.6,0.8,8.6,0.8c3,0,4.5-1.2,4.5-3.7c0-0.9-0.3-1.6-1-2.1s-2.1-1.1-4.1-1.6c-3.3-0.9-5.5-2-6.9-3.3c-1.3-1.3-2-3-2-5.3
		c0-2.9,0.9-5,2.6-6.4s4.1-2.1,7.2-2.1c2.1,0,4.7,0.3,7.9,0.8l1.5,0.3l-0.5,4.6C325.3,15,322.6,14.8,320.9,14.8z"/>
	<path class="st0" d="M342.8,14.8c-3.1,0-4.6,1-4.6,3c0,0.9,0.4,1.6,1.1,2.1c0.8,0.5,2.5,1.2,5.3,2.1s4.7,1.9,5.9,3
		c1.1,1.1,1.7,2.9,1.7,5.2c0,3-0.9,5.3-2.7,6.8c-1.8,1.5-4.2,2.3-7.1,2.3c-2.2,0-4.9-0.3-8-1l-1.5-0.3l0.6-4.5
		c3.8,0.5,6.6,0.8,8.6,0.8c3,0,4.5-1.2,4.5-3.7c0-0.9-0.3-1.6-1-2.1s-2.1-1.1-4.1-1.6c-3.3-0.9-5.5-2-6.9-3.3c-1.3-1.3-2-3-2-5.3
		c0-2.9,0.9-5,2.6-6.4s4.1-2.1,7.1-2.1c2.1,0,4.7,0.3,7.9,0.8l1.5,0.3l-0.5,4.6C347.2,15,344.4,14.8,342.8,14.8z"/>
	<path class="st0" d="M355.8,38.8V10.2h5.8v28.6H355.8z"/>
	<path class="st0" d="M386.6,35.8c-1.8,2.4-4.8,3.6-9.2,3.6s-7.4-1.2-9.2-3.6s-2.7-6.1-2.7-11.1s0.9-8.8,2.7-11.2
		c1.8-2.5,4.8-3.7,9.2-3.7s7.4,1.2,9.2,3.7c1.8,2.5,2.7,6.2,2.7,11.2C389.2,29.7,388.3,33.4,386.6,35.8z M372.7,32.1
		c0.8,1.5,2.4,2.2,4.6,2.2c2.3,0,3.8-0.7,4.6-2.2c0.8-1.5,1.2-3.9,1.2-7.4s-0.4-6-1.3-7.5c-0.8-1.6-2.4-2.4-4.6-2.4
		s-3.8,0.8-4.6,2.4c-0.8,1.6-1.3,4.1-1.3,7.5C371.5,28.1,371.9,30.6,372.7,32.1z"/>
	<path class="st0" d="M393.1,38.8V10.2h9.8l6.9,23.6h0.4V10.2h5.8v28.6h-9.5l-7.1-23.6H399v23.6H393.1z"/>
	<path class="st0" d="M418.8,38.8l6.4-28.6h11l6.4,28.6h-5.8l-1.1-5.2h-10l-1.1,5.2H418.8z M429.8,15l-2.9,13.6h7.8L431.8,15H429.8z
		"/>
	<path class="st0" d="M461.8,38.8h-16.3V10.2h5.8v23.5h10.5V38.8z"/>
	<path class="st0" d="M473.1,14.8c-3.1,0-4.6,1-4.6,3c0,0.9,0.4,1.6,1.1,2.1c0.8,0.5,2.5,1.2,5.3,2.1s4.7,1.9,5.9,3
		c1.1,1.1,1.7,2.9,1.7,5.2c0,3-0.9,5.3-2.7,6.8c-1.8,1.5-4.2,2.3-7.1,2.3c-2.2,0-4.9-0.3-8-1l-1.5-0.3l0.6-4.5
		c3.8,0.5,6.6,0.8,8.6,0.8c3,0,4.5-1.2,4.5-3.7c0-0.9-0.3-1.6-1-2.1s-2.1-1.1-4.1-1.6c-3.3-0.9-5.5-2-6.9-3.3c-1.3-1.3-2-3-2-5.3
		c0-2.9,0.9-5,2.6-6.4s4.1-2.1,7.1-2.1c2.1,0,4.7,0.3,7.9,0.8l1.5,0.3l-0.5,4.6C477.5,15,474.7,14.8,473.1,14.8z"/>
</g>
</svg>
