<svg xmlns="http://www.w3.org/2000/svg" width="29.36" height="29.42" viewBox="0 0 29.36 29.42"><title>icon_menu_configuracoes</title><path d="M29.39,16.05V13.44A1.7,1.7,0,0,0,28,11.73h0l-2.15-.37,0-.06a11.72,11.72,0,0,0-.83-2l0-.06,1.27-1.77A1.72,1.72,0,0,0,26,5.23L24.15,3.38a1.72,1.72,0,0,0-1.22-.51,1.7,1.7,0,0,0-1,.32L20.15,4.46l-.06,0A11.59,11.59,0,0,0,18,3.57l-.06,0-.36-2.13A1.73,1.73,0,0,0,15.88,0H13.26a1.73,1.73,0,0,0-1.71,1.45L11.18,3.6l-.06,0a11.41,11.41,0,0,0-2,.84l-.06,0L7.3,3.23a1.73,1.73,0,0,0-2.23.19L3.21,5.27A1.73,1.73,0,0,0,3,7.5L4.3,9.3l0,.06a11.47,11.47,0,0,0-.82,2l0,.06-2.13.36A1.73,1.73,0,0,0-.14,13.5v2.62a1.73,1.73,0,0,0,1.45,1.71l2.18.37,0,.06a11.41,11.41,0,0,0,.84,2l0,.06L3.11,22.08a1.72,1.72,0,0,0,.19,2.23l1.85,1.85a1.72,1.72,0,0,0,1.22.51,1.7,1.7,0,0,0,1-.32l1.8-1.28.06,0a11.69,11.69,0,0,0,1.95.8l.06,0,.36,2.15a1.73,1.73,0,0,0,1.71,1.45h2.62a1.73,1.73,0,0,0,1.71-1.45L18,25.91l.06,0a11.72,11.72,0,0,0,2-.83l.06,0,1.77,1.27a1.73,1.73,0,0,0,2.23-.19L26,24.26A1.73,1.73,0,0,0,26.18,22l-1.27-1.78,0-.06a11.63,11.63,0,0,0,.83-2l0-.06,2.15-.36A1.73,1.73,0,0,0,29.39,16.05Zm-1.45.11h0a.27.27,0,0,1-.21.16l-2.61.43a.73.73,0,0,0-.59.54,10.05,10.05,0,0,1-1.09,2.63.73.73,0,0,0,0,.8L25,22.88a.27.27,0,0,1,0,.35l-1.85,1.85a.26.26,0,0,1-.19.08.26.26,0,0,1-.16-.05l-2.15-1.53a.73.73,0,0,0-.8,0,10.05,10.05,0,0,1-2.63,1.09.72.72,0,0,0-.54.59l-.44,2.61a.27.27,0,0,1-.27.22H13.32a.27.27,0,0,1-.27-.23l-.43-2.61a.73.73,0,0,0-.54-.59,10.43,10.43,0,0,1-2.57-1.05.76.76,0,0,0-.79,0L6.54,25.17a.29.29,0,0,1-.15.05.27.27,0,0,1-.19-.08L4.34,23.29a.27.27,0,0,1,0-.34L5.84,20.8a.75.75,0,0,0,0-.8,9.94,9.94,0,0,1-1.1-2.62.75.75,0,0,0-.59-.54l-2.63-.45a.27.27,0,0,1-.22-.27V13.5a.27.27,0,0,1,.23-.27l2.59-.43a.73.73,0,0,0,.59-.54A10,10,0,0,1,5.81,9.62a.73.73,0,0,0,0-.79L4.22,6.65a.27.27,0,0,1,0-.35L6.1,4.45a.26.26,0,0,1,.19-.08.26.26,0,0,1,.16.05L8.59,6a.75.75,0,0,0,.8,0A9.94,9.94,0,0,1,12,4.88a.75.75,0,0,0,.54-.59L13,1.67a.27.27,0,0,1,.27-.22h2.62a.27.27,0,0,1,.27.23l.43,2.59a.73.73,0,0,0,.54.59A10.2,10.2,0,0,1,19.83,6a.73.73,0,0,0,.8,0l2.14-1.54a.29.29,0,0,1,.15-.05.27.27,0,0,1,.19.08L25,6.26a.27.27,0,0,1,0,.34L23.46,8.77a.73.73,0,0,0,0,.8,10.06,10.06,0,0,1,1.09,2.63.72.72,0,0,0,.59.54l2.61.44a.27.27,0,0,1,.22.27Z" style="fill:#00c5d2"/><path d="M14.63,8.43a6.31,6.31,0,1,0,6.31,6.31A6.32,6.32,0,0,0,14.63,8.43Zm0,11.16a4.85,4.85,0,1,1,4.85-4.85A4.85,4.85,0,0,1,14.63,19.59Z" style="fill:#00c5d2"/></svg>