<svg xmlns="http://www.w3.org/2000/svg" width="61.67" height="65.92" viewBox="0 0 61.67 65.92"><title>menu-configuracoes</title><g id="3cfe201d-dfe3-4cd3-a624-9175dd5516fc" data-name="Layer 2"><g id="d89c5e4f-dfe2-4432-9352-88afa7d670b3" data-name="Layer 1"><path d="M55.6,33q0-.33,0-.67a6.39,6.39,0,0,1,2-4.89h0a6.43,6.43,0,0,0,1.18-7.92l-2.32-4A6.43,6.43,0,0,0,49,12.54h0a6.4,6.4,0,0,1-5.23-.67q-.59-.36-1.2-.69A6.39,6.39,0,0,1,39.42,7V7a6.43,6.43,0,0,0-6.27-5H28.52a6.43,6.43,0,0,0-6.27,5V7a6.39,6.39,0,0,1-3.17,4.18q-.61.33-1.2.69a6.4,6.4,0,0,1-5.23.67h0a6.43,6.43,0,0,0-7.45,2.94l-2.32,4A6.43,6.43,0,0,0,4,27.41H4a6.39,6.39,0,0,1,2,4.89q0,.33,0,.67t0,.67a6.39,6.39,0,0,1-2,4.89H4a6.43,6.43,0,0,0-1.18,7.92l2.32,4a6.43,6.43,0,0,0,7.45,2.94h0a6.4,6.4,0,0,1,5.23.67q.59.36,1.2.69a6.39,6.39,0,0,1,3.17,4.18v0a6.43,6.43,0,0,0,6.27,5h4.64a6.43,6.43,0,0,0,6.27-5v0a6.39,6.39,0,0,1,3.17-4.18q.61-.33,1.2-.69A6.4,6.4,0,0,1,49,53.38h0a6.43,6.43,0,0,0,7.45-2.94l2.32-4a6.43,6.43,0,0,0-1.18-7.92h0a6.39,6.39,0,0,1-2-4.89Q55.6,33.3,55.6,33Z" fill="none" stroke="#00c5d2" stroke-linecap="round" stroke-linejoin="round" stroke-width="4"/><circle cx="30.83" cy="32.96" r="9.29" fill="none" stroke="#00c5d2" stroke-linecap="round" stroke-linejoin="round" stroke-width="4"/></g></g></svg>