<svg xmlns="http://www.w3.org/2000/svg" width="29.36" height="25.84" viewBox="0 0 29.36 25.84"><title>icon_menu_consumos</title><path d="M18.29,7.61h0a.76.76,0,0,0-.06-.3A.81.81,0,0,0,17,7L17,7a.77.77,0,0,0-.28.45L16.07,9l-1.45,3.58h-.29l-.34,0a2.8,2.8,0,0,0-2,1.3,2.84,2.84,0,0,0-.25.5,2.81,2.81,0,0,0-.18,1.08,2.78,2.78,0,0,0,.16.81c0,.09,0,.17.09.26h0l0,.06a2.72,2.72,0,0,0,1,1.16,2.81,2.81,0,0,0,1,.39l.17,0,.31,0h0a2.78,2.78,0,0,0,.38,0l.19,0a2.81,2.81,0,0,0,.55-.18l.2-.12A2.78,2.78,0,0,0,17,16.35h0a2.8,2.8,0,0,0-.81-3.13l0,0,0,0,1.5-3.7L18.2,8a.8.8,0,0,0,0-.12.73.73,0,0,0,.06-.24Zm-2.82,8.17a1.18,1.18,0,0,1-.15.25,1.2,1.2,0,0,1-.48.43l-.12,0a1.25,1.25,0,0,1-.24.07h-.19a1.19,1.19,0,0,1-.37-.07,1.22,1.22,0,0,1-.71-1.56,1.38,1.38,0,0,1,.48-.56,1.2,1.2,0,0,1,.16-.11h0a1.22,1.22,0,0,1,.44-.1h0a1.19,1.19,0,0,1,.41.07l.1,0a1.18,1.18,0,0,1,.27.17l.09.08a1.18,1.18,0,0,1,.28,1.28Z" style="fill:#00c5d2"/><path d="M14.61,0A13.74,13.74,0,0,1,23.9,23.9l-2.32-2.27-.08-.08h0a.65.65,0,0,1,.5-1.06.69.69,0,0,1,.56.31l1.11,1.11a.25.25,0,0,0,.18.07h0A.25.25,0,0,0,24,21.9a12.33,12.33,0,0,0,3-7.2.25.25,0,0,0-.25-.27H25a.65.65,0,0,1,0-1.29h1.8a.25.25,0,0,0,.25-.27,12.33,12.33,0,0,0-3-7.2.25.25,0,0,0-.18-.09h0a.25.25,0,0,0-.18.07L22.44,6.87l-.08.07A.65.65,0,1,1,21.44,6l0,0,1.26-1.26a.25.25,0,0,0,0-.37,12.32,12.32,0,0,0-7.2-3h0a.25.25,0,0,0-.25.25V3.4a.63.63,0,0,1,0,.07.65.65,0,1,1-1.3,0,.23.23,0,0,0,0-.07V1.62a.25.25,0,0,0-.25-.25h0a12.33,12.33,0,0,0-7.2,3,.25.25,0,0,0,0,.37L7.73,6l0,0a.65.65,0,0,1-.92.91l0,0L5.56,5.64a.25.25,0,0,0-.18-.07h0a.25.25,0,0,0-.18.09,12.33,12.33,0,0,0-3,7.2.25.25,0,0,0,.25.27H4.28a.65.65,0,1,1,0,1.3H2.46a.25.25,0,0,0-.25.27,12.33,12.33,0,0,0,3,7.2.25.25,0,0,0,.18.09h0a.25.25,0,0,0,.18-.07L6.77,20.7l.05-.05h0a.65.65,0,0,1,.91.91l0,0L5.26,23.85A13.74,13.74,0,0,1,14.61,0" style="fill:#00c5d2"/></svg>