<svg xmlns="http://www.w3.org/2000/svg" width="29.36" height="30.83" viewBox="0 0 29.36 30.83"><title>icon_menu_faturas</title><path d="M27,24.83v-9.9q0-2.81,0-5.62V7.69q0-1.14,0-2.29a.74.74,0,0,0-.74-.73H22.1V3.73q0-1.14,0-2.27a.74.74,0,0,0-.74-.73H2.15a.74.74,0,0,0-.74.74q0,1.1,0,2.21,0,.95,0,1.89v.22c0,.19,0,.37,0,.56V16.2q0,2.82,0,5.64v1.53q0,1.18,0,2.37a.74.74,0,0,0,.74.73H6.32v.89q0,1.16,0,2.33a.74.74,0,0,0,.74.73H26.28a.74.74,0,0,0,.74-.74q0-1.11,0-2.21,0-.94,0-1.89v-.21C27,25.21,27,25,27,24.83Zm-5.12,1.45a.73.73,0,0,0,.22-.52q0-1.11,0-2.22v-.36h.72a.74.74,0,1,0,0-1.47h-.72v-.26c0-.19,0-.37,0-.56V18.56h.72a.74.74,0,0,0,0-1.47h-.72V13.94h.73a.74.74,0,0,0,0-1.47h-.73V11.26q0-2.56,0-5.12h3.42q0,4.2,0,8.4v1.82q0,4.62,0,9.23v1.8q0,.79,0,1.58H7.79q0-1.07,0-2.15v-.33H21.38A.73.73,0,0,0,21.89,26.28Zm-19-21.2h0q0-.71,0-1.42t0-1.47H20.63q0,1,0,2V7.62q0,2.26,0,4.52v.71q0,4.39,0,8.79v.48h0q0,.67,0,1.34t0,1.55H2.89q0-4.35,0-8.71V14.58q0-4.51,0-9V5.08Z" style="fill:#00c5d2"/><path d="M12.18,13.73h5.63a.73.73,0,1,0,0-1.46H12.18a.73.73,0,0,0,0,1.46Z" style="fill:#00c5d2"/><path d="M12.18,9.16h5.63a.73.73,0,1,0,0-1.46H12.18a.73.73,0,0,0,0,1.46Z" style="fill:#00c5d2"/><path d="M12.18,18.31h5.63a.73.73,0,1,0,0-1.46H12.18a.73.73,0,0,0,0,1.46Z" style="fill:#00c5d2"/><path d="M10.05,14.34a2.17,2.17,0,0,0-2.17-2.17h-1a.8.8,0,0,1-.81-.8.79.79,0,0,1,.23-.56.81.81,0,0,1,.56-.23h1a.79.79,0,0,1,.71.43.68.68,0,1,0,1.22-.62A2.1,2.1,0,0,0,8.05,9.23V8.29a.69.69,0,0,0-1.37,0v1a2.09,2.09,0,0,0-1.36.61,2.16,2.16,0,0,0,1.52,3.69h1a.8.8,0,0,1,.57.24.75.75,0,0,1,.23.56.8.8,0,0,1-.81.8h-1a.79.79,0,0,1-.71-.43.68.68,0,0,0-1.22.62A2.18,2.18,0,0,0,6.69,16.5v.94a.69.69,0,0,0,1.37,0v-1A2.17,2.17,0,0,0,10.05,14.34Z" style="fill:#00c5d2"/></svg>