<svg xmlns="http://www.w3.org/2000/svg" width="29.36" height="29.42" viewBox="0 0 29.36 29.42"><defs><style>.a{fill:#00c5d2;}</style></defs><path class="a" d="M15,20.71a4.71,4.71,0,0,1,7.75-3.21l-1.47,0a.57.57,0,1,0,0,1.13l2.9-.07a.56.56,0,0,0,.55-.58l-.06-2.89a.57.57,0,1,0-1.14,0l0,1.16a6.16,6.16,0,0,0-10,4.28.73.73,0,0,0,.67.78A.72.72,0,0,0,15,20.71Z"/><path class="a" d="M24.9,20.11a.72.72,0,0,0-.68.76,4.73,4.73,0,0,1-3.37,4.75,4.68,4.68,0,0,1-4.61-1.14l1.44.09a.57.57,0,0,0,.06-1.14l-2.89-.16a.56.56,0,0,0-.41.14.58.58,0,0,0-.19.39l-.16,2.9a.55.55,0,0,0,.53.59.57.57,0,0,0,.6-.53l.07-1.18h0A6.15,6.15,0,0,0,25.66,20.8.73.73,0,0,0,24.9,20.11Z"/><path class="a" d="M10.87,13.81H4.48a.61.61,0,0,0-.62.6.66.66,0,0,0,.17.44.68.68,0,0,0,.43.19h6.41a.63.63,0,0,0,.61-.63A.62.62,0,0,0,10.87,13.81Z"/><path class="a" d="M7.21,16.55H4.48a.61.61,0,0,0-.62.6.66.66,0,0,0,.17.44.63.63,0,0,0,.43.19H7.21a.61.61,0,0,0,.63-.6.64.64,0,0,0-.17-.44.59.59,0,0,0-.43-.19Z"/><path class="a" d="M29.1,18.52V3.79a3,3,0,0,0-3-3H3.24a3,3,0,0,0-3,3V19a3,3,0,0,0,3,3h7.15a.62.62,0,1,0,0-1.24H3.24A1.72,1.72,0,0,1,1.5,19V10.74H27.86v7.8h0a.61.61,0,0,0,.61.62.63.63,0,0,0,.44-.18h0a.6.6,0,0,0,.18-.44ZM27.86,5.93H1.5V3.79A1.72,1.72,0,0,1,3.24,2.05H26.12a1.72,1.72,0,0,1,1.74,1.74Z"/></svg>