<svg xmlns="http://www.w3.org/2000/svg" width="29.36" height="29.42" viewBox="0 0 29.36 29.42"><defs><style>.a{fill:#00c5d2;}</style></defs><path class="a" d="M14.9-.11A14.53,14.53,0,0,0,2.65,22.27l-2,4.59a1.48,1.48,0,0,0,.23,1.56A1.51,1.51,0,0,0,2.07,29a1.32,1.32,0,0,0,.34,0l6.08-1.43A14.34,14.34,0,0,0,14.9,29a14.55,14.55,0,0,0,0-29.1Zm0,27.65a12.88,12.88,0,0,1-4-.63,12.5,12.5,0,0,1-2.31-1l-2,.47L2.07,27.45l1.61-3.76.65-1.53a13.68,13.68,0,0,1-1-1.53A13.1,13.1,0,1,1,14.9,27.54Z"/><path class="a" d="M14.9,7.33a1.2,1.2,0,1,0,1.19,1.2A1.2,1.2,0,0,0,14.9,7.33Z"/><path class="a" d="M14.9,11.57a1.2,1.2,0,0,0-1.2,1.2v7.08a1.2,1.2,0,1,0,2.39,0V12.77A1.2,1.2,0,0,0,14.9,11.57Z"/></svg>