<svg xmlns="http://www.w3.org/2000/svg" width="29.36" height="21.75" viewBox="0 0 29.36 21.75"><title>icon_menu_viaturas</title><path d="M7.86,7.83H21.53a.66.66,0,0,0,.6-.94c-.17-.37-.34-.74-.52-1.14-.25-.56-.51-1.14-.81-1.75l0-.06a2.29,2.29,0,0,0-1.69-1.29h-8.8A2.23,2.23,0,0,0,8.6,4l0,0c-.3.61-.56,1.19-.8,1.74-.18.4-.34.77-.52,1.14a.66.66,0,0,0,.6.94ZM9,6.28c.24-.54.49-1.1.78-1.69s.47-.6.61-.62H19c.21,0,.37.19.64.63s.53,1.14.77,1.68l.1.22H8.89Z" style="fill:#00c5d2"/><path d="M22.36,10.21a2.44,2.44,0,1,0,2.44,2.44A2.44,2.44,0,0,0,22.36,10.21Zm0,3.56a1.12,1.12,0,1,1,1.12-1.12A1.12,1.12,0,0,1,22.36,13.77Z" style="fill:#00c5d2"/><path d="M29.36,7.47c0-.72-.42-1.51-1.07-1.51H26l-1.57-3.6a.65.65,0,0,0-.07-.13C23.15.58,22.18,0,20.66,0H8.7C7.18,0,6.19.61,5,2.24L5,2.35,3.36,6H1.06C.41,6,0,6.72,0,7.45a2,2,0,0,0,1.8,2L1.18,11a.66.66,0,0,0,0,.25c0,1.46,0,2.94,0,4.38s0,2.92,0,4.38a1.73,1.73,0,0,0,1.75,1.75H6.59A1.73,1.73,0,0,0,8.34,20V18.22H21V20a1.75,1.75,0,0,0,1.75,1.75h3.71A1.73,1.73,0,0,0,28.22,20c0-1.45,0-2.94,0-4.38s0-2.93,0-4.38a.66.66,0,0,0-.05-.26l-.64-1.52A2,2,0,0,0,29.36,7.47ZM28,7.74c-.15.31-.65.49-1.39.51a.66.66,0,0,0-.59.92l.93,2.2c0,1.41,0,2.85,0,4.24s0,2.93,0,4.38a.41.41,0,0,1-.43.43H22.77a.43.43,0,0,1-.43-.43V17.56a.66.66,0,0,0-.66-.66h-14a.66.66,0,0,0-.66.66V20a.41.41,0,0,1-.43.43H2.92A.41.41,0,0,1,2.49,20c0-1.46,0-2.94,0-4.38s0-2.84,0-4.25l.9-2.21a.66.66,0,0,0-.59-.91c-.74,0-1.22-.2-1.38-.51a.66.66,0,0,1,0-.46H3.79a.66.66,0,0,0,.6-.39L6.15,3c1-1.39,1.62-1.63,2.55-1.63h12c.95,0,1.55.24,2.59,1.63L25,6.89a.66.66,0,0,0,.6.4H28A.67.67,0,0,1,28,7.74Z" style="fill:#00c5d2"/><path d="M7,10.21a2.44,2.44,0,1,0,2.44,2.44A2.44,2.44,0,0,0,7,10.21Zm0,3.56a1.12,1.12,0,1,1,1.12-1.12A1.12,1.12,0,0,1,7,13.77Z" style="fill:#00c5d2"/></svg>